<?xml version="1.0" encoding="UTF-8"?>
<svg version="1.1" xmlns="http://www.w3.org/2000/svg" width="2500" height="599">
<path d="M0 0 C0 16.17 0 32.34 0 49 C541.86 49 1083.72 49 1642 49 C1642 180.01 1642 311.02 1642 446 C1592.23525879 445.83129395 1542.47051758 445.66258789 1491.19775391 445.48876953 C1444.33204562 445.33763661 1444.33204562 445.33763661 1397.46631029 445.19565353 C1394.37033367 445.18659139 1391.27435705 445.1775277 1388.1783805 445.16843673 C1315.57621984 444.95527432 1242.97404857 444.79544665 1170.37167358 444.67697144 C1168.00571073 444.67309629 1165.63974787 444.66922111 1163.27378501 444.66534589 C1113.56041555 444.58409147 1063.84703693 444.51075761 1014.13364261 444.44651664 C989.14357225 444.41421539 964.15350411 444.38039977 939.16343774 444.34514923 C935.39488146 444.33984218 931.62632512 444.33457843 927.85776877 444.32931647 C870.14887796 444.2483593 812.44027324 444.13586579 754.73168945 443.92718506 C752.8848602 443.92050767 752.8848602 443.92050767 751.00072127 443.91369538 C731.16273442 443.84176908 711.32475797 443.76707782 691.48678276 443.69201725 C634.01664516 443.47461106 576.54676739 443.27923315 519.07622337 443.21623039 C517.882543 443.21491199 516.68886264 443.21359359 515.45901013 443.21223524 C489.19097597 443.18358535 462.92294509 443.16534194 436.65489701 443.15681517 C426.0693222 443.15319745 415.4837482 443.14809608 404.89817429 443.14248276 C403.16086421 443.14161528 403.16086421 443.14161528 401.38845695 443.14073027 C366.94059617 443.12284715 332.49428115 443.00708335 298.04696823 442.81570646 C245.08112996 442.52303121 192.11732877 442.39061608 139.15087891 442.59423828 C137.61955574 442.59994127 137.61955574 442.59994127 136.05729675 442.60575948 C46.53561183 442.94452658 -42.36543485 444.49800186 -275.39639234 481.40566242 C-292.47058609 484.77590868 -309.5745852 487.6919851 -326.79598999 490.20339966 C-327.88023123 490.36231626 -328.96447247 490.52123286 -330.08156951 490.68496512 C-345.99889547 493 -345.99889547 493 -350 493 C-350 477.49 -350 461.98 -350 446 C-517.64 446 -685.28 446 -858 446 C-858 314.99 -858 183.98 -858 49 C-821.89980469 49.2990625 -785.79960938 49.598125 -748.60546875 49.90625 C-726.63640024 50.01753682 -704.66777142 50.12623447 -682.6985954 50.19396758 C-669.73075567 50.23411627 -656.76292223 50.27577727 -643.79510311 50.32215412 C-642.22893813 50.32775113 -640.66277297 50.33330007 -639.09660765 50.33880036 C-616.91229924 50.41706468 -594.72982835 50.57005634 -572.54654194 50.79582369 C-535.50380028 51.17277611 -498.46281331 51.40906663 -461.41796875 51.34375 C-460.32122516 51.34189067 -460.32122516 51.34189067 -459.20232513 51.33999377 C-370.99804112 51.17993726 -285.31487161 45.95644585 -148.25893307 22.38307953 C-118.46860108 16.85611686 -88.59904675 12.02639528 -58.64271937 7.48620427 C-55.11469063 6.95092432 -51.58711483 6.41274359 -48.05962813 5.87390423 C-42.54353925 5.03223148 -37.02637584 4.1980258 -31.50813021 3.37061298 C-29.47671121 3.06560427 -27.44553527 2.75897168 -25.41462408 2.45059979 C-22.62607585 2.02827966 -19.83648517 1.6137214 -17.04643536 1.20145416 C-16.24167189 1.07826249 -15.43690842 0.95507082 -14.60775818 0.82814607 C-13.85015735 0.71790366 -13.09255651 0.60766125 -12.31199807 0.49407816 C-11.66787062 0.39796563 -11.02374317 0.30185311 -10.3600967 0.20282808 C-6.9187545 -0.09292287 -3.45402733 0 0 0 Z " fill="#E30613" transform="translate(858,0)"/>
<path d="M0 0 C535.26 0 1070.52 0 1622 0 C1622 119.46 1622 238.92 1622 362 C1086.74 362 551.48 362 0 362 C0 355.4 0 348.8 0 342 C123.75 342 247.5 342 375 342 C375 235.74 375 129.48 375 20 C251.25 20 127.5 20 0 20 C0 13.4 0 6.8 0 0 Z " fill="#00649C" transform="translate(857,66)"/>
<path d="M0 0 C162.03 0 324.06 0 491 0 C491 119.46 491 238.92 491 362 C328.97 362 166.94 362 0 362 C0 242.54 0 123.08 0 0 Z " fill="#FEEC00" transform="translate(18,66)"/>
<path d="M0 0 C123.75 0 247.5 0 375 0 C375 106.26 375 212.52 375 322 C251.25 322 127.5 322 0 322 C0 215.74 0 109.48 0 0 Z " fill="#FEEB00" transform="translate(857,86)"/>
<path d="M0 0 C0 16.17 0 32.34 0 49 C541.86 49 1083.72 49 1642 49 C1642 180.01 1642 311.02 1642 446 C1592.23525879 445.83129395 1542.47051758 445.66258789 1491.19775391 445.48876953 C1444.33204562 445.33763661 1444.33204562 445.33763661 1397.46631029 445.19565353 C1394.37033367 445.18659139 1391.27435705 445.1775277 1388.1783805 445.16843673 C1315.57621984 444.95527432 1242.97404857 444.79544665 1170.37167358 444.67697144 C1168.00571073 444.67309629 1165.63974787 444.66922111 1163.27378501 444.66534589 C1113.56041555 444.58409147 1063.84703693 444.51075761 1014.13364261 444.44651664 C989.14357225 444.41421539 964.15350411 444.38039977 939.16343774 444.34514923 C935.39488146 444.33984218 931.62632512 444.33457843 927.85776877 444.32931647 C870.14887796 444.2483593 812.44027324 444.13586579 754.73168945 443.92718506 C752.8848602 443.92050767 752.8848602 443.92050767 751.00072127 443.91369538 C731.16273442 443.84176908 711.32475797 443.76707782 691.48678276 443.69201725 C634.01664516 443.47461106 576.54676739 443.27923315 519.07622337 443.21623039 C517.882543 443.21491199 516.68886264 443.21359359 515.45901013 443.21223524 C489.19097597 443.18358535 462.92294509 443.16534194 436.65489701 443.15681517 C426.0693222 443.15319745 415.4837482 443.14809608 404.89817429 443.14248276 C403.16086421 443.14161528 403.16086421 443.14161528 401.38845695 443.14073027 C366.94059617 443.12284715 332.49428115 443.00708335 298.04696823 442.81570646 C245.08112996 442.52303121 192.11732877 442.39061608 139.15087891 442.59423828 C137.61955574 442.59994127 137.61955574 442.59994127 136.05729675 442.60575948 C46.53561183 442.94452658 -42.36543485 444.49800186 -275.39639234 481.40566242 C-292.47058609 484.77590868 -309.5745852 487.6919851 -326.79598999 490.20339966 C-327.88023123 490.36231626 -328.96447247 490.52123286 -330.08156951 490.68496512 C-345.99889547 493 -345.99889547 493 -350 493 C-350 477.49 -350 461.98 -350 446 C-517.64 446 -685.28 446 -858 446 C-858 314.99 -858 183.98 -858 49 C-821.89980469 49.2990625 -785.79960938 49.598125 -748.60546875 49.90625 C-726.63640024 50.01753682 -704.66777142 50.12623447 -682.6985954 50.19396758 C-669.73075567 50.23411627 -656.76292223 50.27577727 -643.79510311 50.32215412 C-642.22893813 50.32775113 -640.66277297 50.33330007 -639.09660765 50.33880036 C-616.91229924 50.41706468 -594.72982835 50.57005634 -572.54654194 50.79582369 C-535.50380028 51.17277611 -498.46281331 51.40906663 -461.41796875 51.34375 C-460.32122516 51.34189067 -460.32122516 51.34189067 -459.20232513 51.33999377 C-370.99804112 51.17993726 -285.31487161 45.95644585 -148.25893307 22.38307953 C-118.46860108 16.85611686 -88.59904675 12.02639528 -58.64271937 7.48620427 C-55.11469063 6.95092432 -51.58711483 6.41274359 -48.05962813 5.87390423 C-42.54353925 5.03223148 -37.02637584 4.1980258 -31.50813021 3.37061298 C-29.47671121 3.06560427 -27.44553527 2.75897168 -25.41462408 2.45059979 C-22.62607585 2.02827966 -19.83648517 1.6137214 -17.04643536 1.20145416 C-16.24167189 1.07826249 -15.43690842 0.95507082 -14.60775818 0.82814607 C-13.85015735 0.71790366 -13.09255651 0.60766125 -12.31199807 0.49407816 C-11.66787062 0.39796563 -11.02374317 0.30185311 -10.3600967 0.20282808 C-6.9187545 -0.09292287 -3.45402733 0 0 0 Z M-27.37792969 23.83862305 C-28.65247009 24.02269211 -29.9270105 24.20676117 -31.24017334 24.39640808 C-32.63408823 24.60141418 -34.02798835 24.80652072 -35.421875 25.01171875 C-36.88262909 25.22422504 -38.34342508 25.43644351 -39.80426025 25.64839172 C-42.8846361 26.09604538 -45.96466324 26.54600242 -49.04443359 26.99780273 C-52.88357073 27.56099527 -56.72323229 28.1204934 -60.56313896 28.67841244 C-76.10987753 30.93767922 -91.64918197 33.24109502 -107.1796875 35.609375 C-119.87848493 37.54551839 -132.5884139 39.38439379 -145.31344604 41.13995361 C-150.66667371 41.87878985 -156.01889089 42.62487524 -161.37109375 43.37109375 C-162.91770439 43.58662903 -162.91770439 43.58662903 -164.49555969 43.80651855 C-173.1591948 45.01655026 -181.81382413 46.27949816 -190.46435547 47.58007812 C-196.54713213 48.49313141 -202.63292045 49.38088848 -208.72265625 50.24609375 C-209.48920029 50.35505981 -210.25574432 50.46402588 -211.04551697 50.57629395 C-214.78450795 51.10730269 -218.52377239 51.63628905 -222.26342773 52.16259766 C-229.53060245 53.18984178 -236.78462222 54.27382114 -244.03125 55.4375 C-254.42260611 57.10091462 -264.84189984 58.54928713 -275.26608276 59.99017334 C-280.76267716 60.75048136 -286.25829367 61.51778851 -291.75390625 62.28515625 C-292.82165787 62.4342041 -293.88940948 62.58325195 -294.98951721 62.73681641 C-303.4761263 63.92311527 -311.95945918 65.1288287 -320.4375 66.375 C-321.50613281 66.53025146 -322.57476563 66.68550293 -323.67578125 66.84545898 C-324.62710938 66.98669189 -325.5784375 67.1279248 -326.55859375 67.2734375 C-327.35579834 67.39122559 -328.15300293 67.50901367 -328.97436523 67.63037109 C-331.19291531 67.98608765 -331.19291531 67.98608765 -334 69 C-334 202.32 -334 335.64 -334 473 C-324.6855887 472.33468491 -315.60814926 471.52573413 -306.39453125 470.203125 C-305.14557571 470.02726868 -303.89662018 469.85141235 -302.6098175 469.67022705 C-290.52115389 467.95705169 -278.44756586 466.14387663 -266.37670898 464.31005859 C-259.86007404 463.32076863 -253.34238961 462.33848713 -246.82421875 461.359375 C-246.16020931 461.25962875 -245.49619987 461.15988251 -244.81206894 461.05711365 C-230.88472378 458.96719314 -216.94421986 456.97371796 -203 455 C-183.19426232 452.19538417 -163.40519317 449.29166943 -143.625 446.3125 C-142.34881805 446.12031891 -141.07263611 445.92813782 -139.75778198 445.73013306 C-134.8196384 444.98628466 -129.88154465 444.24210671 -124.94352722 443.49742126 C-104.31982478 440.38816427 -83.68928394 437.34970122 -63.02441406 434.52490234 C-53.88713329 433.27128876 -44.75607676 431.97756907 -35.62939453 430.64916992 C-34.09327426 430.42595497 -32.55697966 430.2039362 -31.02050781 429.9831543 C-28.88424802 429.67580401 -26.7486963 429.36393964 -24.61328125 429.05078125 C-23.38391846 428.87200439 -22.15455566 428.69322754 -20.88793945 428.5090332 C-18.07012473 428.15388088 -18.07012473 428.15388088 -16 427 C-16 293.68 -16 160.36 -16 23 C-19.99272908 23 -23.45668315 23.26697379 -27.37792969 23.83862305 Z M-840 66 C-840 185.46 -840 304.92 -840 428 C-677.97 428 -515.94 428 -349 428 C-349 308.54 -349 189.08 -349 66 C-511.03 66 -673.06 66 -840 66 Z M-1 66 C-1 185.46 -1 304.92 -1 428 C534.26 428 1069.52 428 1621 428 C1621 308.54 1621 189.08 1621 66 C1085.74 66 550.48 66 -1 66 Z " fill="#FEFEFD" transform="translate(858,0)"/>
<path d="M0 0 C535.26 0 1070.52 0 1622 0 C1622 6.6 1622 13.2 1622 20 C1210.82 20 799.64 20 376 20 C376 126.26 376 232.52 376 342 C787.18 342 1198.36 342 1622 342 C1622 348.6 1622 355.2 1622 362 C1086.74 362 551.48 362 0 362 C0 355.4 0 348.8 0 342 C123.75 342 247.5 342 375 342 C375 235.74 375 129.48 375 20 C251.25 20 127.5 20 0 20 C0 13.4 0 6.8 0 0 Z " fill="#888887" transform="translate(857,66)"/>
<path d="M0 0 C162.03 0 324.06 0 491 0 C491 6.6 491 13.2 491 20 C363.29 20 235.58 20 104 20 C104 126.26 104 232.52 104 342 C231.71 342 359.42 342 491 342 C491 348.6 491 355.2 491 362 C328.97 362 166.94 362 0 362 C0 242.54 0 123.08 0 0 Z " fill="#01659C" transform="translate(18,66)"/>
<path d="M0 0 C10.18827782 7.71250039 18.5841622 17.50174623 22 30 C22.56061111 35.67651297 22.50720836 41.31723944 22.45410156 47.01611328 C22.45297159 48.72199985 22.45360987 50.42788836 22.45587158 52.1337738 C22.45701381 56.73857959 22.43358448 61.34296403 22.40557575 65.94767237 C22.38047983 70.76960744 22.37821366 75.5915534 22.37347412 80.4135437 C22.36106834 89.53291486 22.32827931 98.65209299 22.28807616 107.77137935 C22.24328365 118.15832707 22.22135263 128.54528427 22.20129442 138.93230462 C22.15954442 160.28833458 22.08622215 181.6441001 22 203 C-1.43 203 -24.86 203 -49 203 C-49.02578125 192.4090625 -49.0515625 181.818125 -49.078125 170.90625 C-49.10329047 164.19789815 -49.12945807 157.48957503 -49.16015625 150.78125 C-49.20869833 140.1328145 -49.25314117 129.48447458 -49.27099609 118.8359375 C-49.28401905 111.08038548 -49.31100009 103.32502786 -49.35461307 95.56958532 C-49.3772135 91.46461193 -49.39291154 87.35987817 -49.39188385 83.25483704 C-49.39113639 79.38709423 -49.40912112 75.51988086 -49.44116783 71.65227509 C-49.44965194 70.23660956 -49.45142687 68.82088455 -49.44580269 67.40520477 C-49.41866907 59.52231067 -49.64425788 53.69795322 -54 47 C-58.39636669 42.74101977 -63.58809351 42.64469814 -69.4609375 42.72265625 C-73.60458769 43.17527035 -75.69214208 44.43472243 -79 47 C-81.58745082 51.2657682 -82.37796056 54.45698151 -82.39872742 59.41610718 C-82.41126556 60.68647827 -82.42380371 61.95684937 -82.4367218 63.26571655 C-82.43554793 64.66070583 -82.43408885 66.05569488 -82.43237305 67.45068359 C-82.44139556 68.92939063 -82.45172398 70.40809019 -82.46325684 71.88677979 C-82.49079572 75.89044889 -82.50010709 79.89397596 -82.50611091 83.89772749 C-82.5155027 88.08581623 -82.54170674 92.27379922 -82.56611633 96.46182251 C-82.60976289 104.38769517 -82.63832117 112.31354728 -82.66143972 120.2395035 C-82.69356333 130.95319082 -82.74903294 141.66675573 -82.80318546 152.38035011 C-82.88785731 169.25353033 -82.9413699 186.12666267 -83 203 C-105.77 203 -128.54 203 -152 203 C-152.04898438 192.54183594 -152.09796875 182.08367187 -152.1484375 171.30859375 C-152.18381899 164.68684064 -152.21969559 158.06509637 -152.2578125 151.44335938 C-152.31823326 140.93092856 -152.37662099 130.41851437 -152.421875 119.90600586 C-152.45484272 112.24976372 -152.49470033 104.59359356 -152.54279006 96.93743092 C-152.56800754 92.88452892 -152.5898028 88.83167437 -152.60334396 84.77871513 C-152.61620751 80.96118051 -152.63830791 77.14380902 -152.66738319 73.32636452 C-152.67642549 71.92801048 -152.68214136 70.52963021 -152.68421364 69.13124847 C-152.38232125 57.41990304 -152.38232125 57.41990304 -157.25 47.1875 C-162.49740407 43.01342858 -167.69340235 42.48224719 -174.2421875 42.625 C-178.57771593 43.21453361 -182.00472248 44.78572813 -185 48 C-188.93297293 54.76653152 -188.44191978 61.7447466 -188.43237305 69.38061523 C-188.44139843 70.83976569 -188.45172755 72.29890857 -188.46325684 73.75804138 C-188.49076201 77.70380224 -188.50010249 81.64941897 -188.50611091 85.59526324 C-188.51551151 89.72462309 -188.54171625 93.85387601 -188.56611633 97.98316956 C-188.6097387 105.79567755 -188.63831181 113.60816474 -188.66143972 121.42075735 C-188.69358013 131.98277658 -188.74904585 142.54467186 -188.80318546 153.10659695 C-188.8878219 169.73769439 -188.94136092 186.36874352 -189 203 C-211.77 203 -234.54 203 -258 203 C-258 133.7 -258 64.4 -258 -7 C-235.23 -7 -212.46 -7 -189 -7 C-188.505 2.405 -188.505 2.405 -188 12 C-186.63875 10.68 -185.2775 9.36 -183.875 8 C-175.89870536 0.81680284 -166.31375773 -4.90587268 -156 -8 C-155.32839844 -8.20238281 -154.65679688 -8.40476563 -153.96484375 -8.61328125 C-138.09464743 -12.61485734 -119.61390499 -10.97925308 -105.5078125 -2.671875 C-99.50487371 1.33008419 -94.53635905 5.66402337 -91 12 C-91 12.66 -91 13.32 -91 14 C-88.52656276 11.54841291 -86.08100837 9.08722915 -83.7109375 6.53515625 C-61.87758222 -16.57607099 -25.96614063 -16.2833232 0 0 Z " fill="#FEFEFE" transform="translate(804,170)"/>
<path d="M0 0 C0.60972656 0.26232422 1.21945312 0.52464844 1.84765625 0.79492188 C10.1461574 4.4071087 17.3149995 8.88654152 24 15 C24.5038623 15.45616699 25.00772461 15.91233398 25.52685547 16.38232422 C47.09280515 36.13437606 59.45095181 62.68728802 61.23925781 91.90966797 C61.39965822 96.1271356 61.43826373 100.34230211 61.4375 104.5625 C61.43889984 105.30712494 61.44029968 106.05174988 61.44174194 106.81893921 C61.42273518 119.15333828 60.12281106 130.30028794 56 142 C55.61585938 143.175625 55.23171875 144.35125 54.8359375 145.5625 C50.34575448 158.2694125 43.90603427 169.88723208 35 180 C34.32453125 180.81855469 33.6490625 181.63710938 32.953125 182.48046875 C19.04351364 198.85218285 -0.95711187 209.90554695 -22.45947266 212.27050781 C-48.55915237 214.09723026 -69.56270212 205.06256859 -89.0078125 188.265625 C-109.58901269 168.92886948 -121.9554148 140.00642576 -123.12426758 112.02514648 C-123.46038095 98.6981993 -123.40120529 85.94510462 -120 73 C-119.7215625 71.91332031 -119.443125 70.82664062 -119.15625 69.70703125 C-111.63628684 43.09543749 -95.1825243 18.31489763 -70.91748047 4.30957031 C-49.76958346 -7.2481675 -22.34122135 -9.96297709 0 0 Z " fill="#E30612" transform="translate(433,161)"/>
<path d="M0 0 C21.43103026 17.74091909 29.61051314 47.71639548 32.3359375 74.2734375 C33.15199206 83.91170352 33 93.25608932 33 103 C0 103 -33 103 -67 103 C-59.13782941 122.85811685 -59.13782941 122.85811685 -43 134 C-19.80445825 142.44836561 3.12206249 133.79740897 24.875 124.8125 C27 124 27 124 29 124 C29.20894284 131.58837858 29.36864785 139.17645763 29.46630955 146.76706123 C29.51319712 150.29235864 29.57672687 153.81568247 29.67895508 157.33984375 C29.79587334 161.3960204 29.83919104 165.4501401 29.87890625 169.5078125 C29.92535782 170.76739777 29.97180939 172.02698303 30.01966858 173.32473755 C30.0245974 181.88606667 30.0245974 181.88606667 27.06393433 185.10487366 C24.76253301 186.66940439 22.54192641 187.87618011 20 189 C19.37513199 189.31387161 18.75026398 189.62774323 18.10646057 189.9511261 C14.17782661 191.86124273 10.06332172 193.40131604 6 195 C5.22914063 195.309375 4.45828125 195.61875 3.6640625 195.9375 C-22.07204836 205.40365572 -53.91384088 204.92593279 -79 194 C-89.35242445 189.21148716 -98.60643926 183.81642503 -107 176 C-107.48807129 175.55285645 -107.97614258 175.10571289 -108.47900391 174.64501953 C-127.73592764 156.86517204 -141.82874966 131.16858899 -143.17285156 104.58081055 C-143.23180385 100.88505181 -143.22396116 97.19600993 -143.1875 93.5 C-143.18685547 92.25863281 -143.18621094 91.01726562 -143.18554688 89.73828125 C-143.0351089 58.01258428 -132.16634514 31.08190252 -110.375 7.9375 C-81.82474178 -19.95491817 -32.09474515 -24.42430292 0 0 Z " fill="#E30612" transform="translate(1016,178)"/>
<path d="M0 0 C0 17.16 0 34.32 0 52 C14.19 52 28.38 52 43 52 C43 67.84 43 83.68 43 100 C28.81 100 14.62 100 0 100 C0.09073341 116.40735957 0.09073341 116.40735957 0.20898438 132.81445312 C0.26332156 139.50591912 0.31443111 146.19730109 0.34643555 152.88891602 C0.37243877 158.28365849 0.41282036 163.67811903 0.46318626 169.07268715 C0.4798751 171.13113207 0.4913768 173.18962577 0.49761391 175.24812889 C0.50723293 178.13080803 0.53526625 181.01276259 0.56762695 183.89526367 C0.56619186 184.74690598 0.56475677 185.59854828 0.5632782 186.47599792 C0.63730428 191.13660895 0.98004227 194.22024956 4 198 C10.01799416 202.67889082 15.38607064 202.51942837 22.8125 202.3125 C24.35647461 202.29799805 24.35647461 202.29799805 25.93164062 202.28320312 C32.38366339 202.18934068 38.53085276 201.64691472 45 201 C45 219.15 45 237.3 45 256 C25.03097079 261.87324388 25.03097079 261.87324388 15.0625 263.3125 C13.39682983 263.55722046 13.39682983 263.55722046 11.69750977 263.80688477 C-11.87980414 267.06404134 -35.00587767 265.11758898 -55 251 C-64.01006856 243.72745957 -70.29393168 232.63270523 -71.81149101 221.14416313 C-72.21684706 216.53351032 -72.12881366 211.90619666 -72.11352539 207.28149414 C-72.11367142 206.11979706 -72.11381744 204.95809998 -72.1139679 203.76119995 C-72.11327333 199.93583281 -72.10550227 196.11051485 -72.09765625 192.28515625 C-72.09579045 189.62715065 -72.09431809 186.96914775 -72.09336853 184.31114197 C-72.09026735 178.03919886 -72.08207039 171.7672733 -72.07201904 165.4953379 C-72.06082013 158.35142035 -72.05533795 151.20750193 -72.05032361 144.06357777 C-72.03988671 129.37570935 -72.02210811 114.68785556 -72 100 C-77.61 100 -83.22 100 -89 100 C-89.34571687 96.36997285 -89.62967307 92.7647687 -89.84319878 89.12708282 C-89.95037711 87.67315801 -90.0917714 86.2214588 -90.26243782 84.77361298 C-91.31967671 75.79041469 -91.71372236 68.02666868 -85.9720602 60.59178543 C-82.85554452 57.02268075 -79.54542544 53.69520528 -76.15234375 50.390625 C-74.70258362 48.9197125 -73.25557519 47.44608338 -71.81117249 45.96990967 C-68.78527807 42.90122591 -65.72586169 39.87193851 -62.63793945 36.86572266 C-58.71362816 33.03850248 -54.89446823 29.12272502 -51.09616756 25.17090225 C-48.13149191 22.11067865 -45.11374705 19.10738555 -42.07837105 16.11742401 C-40.6479465 14.69470912 -39.23440281 13.25478062 -37.83991814 11.79682159 C-37.17368494 11.10559959 -36.50745174 10.41437759 -35.82102966 9.70220947 C-35.24773139 9.09642185 -34.67443312 8.49063423 -34.08376217 7.86648941 C-21.42944927 -3.21409891 -19.83333538 0 0 0 Z " fill="#E30612" transform="translate(1150,112)"/>
<path d="M0 0 C1 1 1 1 1.12025452 3.20826721 C1.11803391 4.18311569 1.11581329 5.15796417 1.11352539 6.16235352 C1.11344986 7.26341934 1.11337433 8.36448517 1.11329651 9.49891663 C1.10813522 10.6968132 1.10297394 11.89470978 1.09765625 13.12890625 C1.09553383 14.95795753 1.09553383 14.95795753 1.09336853 16.82395935 C1.08774967 20.7368307 1.07519396 24.64964581 1.0625 28.5625 C1.05748743 31.20768147 1.0529241 33.85286383 1.04882812 36.49804688 C1.03777411 42.99871726 1.02101764 49.49935461 1 56 C0.31501434 55.71972458 -0.36997131 55.43944916 -1.07571411 55.15068054 C-2.42486404 54.60369255 -2.42486404 54.60369255 -3.80126953 54.0456543 C-5.13812302 53.50149117 -5.13812302 53.50149117 -6.50198364 52.94633484 C-16.65221532 49.10107665 -29.14998067 49.83907401 -39.15234375 53.67578125 C-52.62968465 59.94302208 -60.30441719 68.33412794 -66 82 C-70.33702769 95.07049442 -68.29845028 107.63247807 -63 120 C-61.01666489 123.43515609 -58.78805715 126.18945852 -56 129 C-55.319375 129.70640625 -54.63875 130.4128125 -53.9375 131.140625 C-43.38795707 141.31339854 -32.20009226 143.45284512 -18.13671875 143.30078125 C-11.85226476 143.07604835 -6.79942896 141.39681197 -1 139 C-0.34 139 0.32 139 1 139 C1 158.8 1 178.6 1 199 C-23.20603932 209.7582397 -49.9716596 211.16199072 -75.0300293 201.98022461 C-88.87977123 196.49860781 -100.07264524 188.96006471 -111 179 C-111.65355469 178.42894531 -112.30710938 177.85789062 -112.98046875 177.26953125 C-128.25621323 163.15488849 -137.77975641 143.09535677 -142 123 C-142.2616394 121.89531372 -142.2616394 121.89531372 -142.52856445 120.76831055 C-144.02025191 114.12364147 -144.34928734 107.73527429 -144.3125 100.9375 C-144.30686035 99.84058838 -144.3012207 98.74367676 -144.29541016 97.61352539 C-143.85856209 68.09600456 -131.85313134 42.39709109 -111.5625 21.1875 C-96.03306993 6.31889674 -77.35671339 -3.88170229 -56 -7 C-54.87658203 -7.16628906 -54.87658203 -7.16628906 -53.73046875 -7.3359375 C-35.52309274 -9.57034185 -16.84332087 -7.63324967 0 0 Z " fill="#E30612" transform="translate(304,165)"/>
<path d="M0 0 C162.03 0 324.06 0 491 0 C491 6.6 491 13.2 491 20 C329.3 20 167.6 20 1 20 C1 126.26 1 232.52 1 342 C162.7 342 324.4 342 491 342 C491 348.6 491 355.2 491 362 C328.97 362 166.94 362 0 362 C0 242.54 0 123.08 0 0 Z " fill="#898989" transform="translate(18,66)"/>
<path d="M0 0 C12.375 -0.0825 24.75 -0.165 37.5 -0.25 C41.37427734 -0.28641602 45.24855469 -0.32283203 49.24023438 -0.36035156 C54.05566406 -0.37841797 54.05566406 -0.37841797 56.32629395 -0.3817749 C57.87647121 -0.38782539 59.42663245 -0.40169682 60.97668457 -0.42230225 C77.90163955 -0.63559153 93.91835912 1.40033611 106.875 13.375 C114.86378461 21.85366291 115.45752779 31.16682763 115.265625 42.25 C114.87486574 52.07261501 110.8750553 57.76494009 104.31640625 64.87109375 C102.01319099 66.98787675 99.7359874 68.4993085 97 70 C97.556875 70.4125 98.11375 70.825 98.6875 71.25 C99.450625 71.8275 100.21375 72.405 101 73 C101.804375 73.53625 102.60875 74.0725 103.4375 74.625 C113.55850758 84.00544605 114.45003505 98.90395704 115.5625 111.8125 C115.78652389 114.36125177 116.0167694 116.90946606 116.25390625 119.45703125 C116.35002197 120.57053955 116.4461377 121.68404785 116.54516602 122.83129883 C116.98105206 126.53724778 116.98105206 126.53724778 119 132 C107.45 132 95.9 132 84 132 C80.66666667 118.66666667 80.66666667 118.66666667 80.5 113 C80.01689749 104.43677121 79.15465834 94.48734257 73 88 C65.47016512 84.18414272 57.80187958 84.45089452 49.5 84.3125 C44.715 84.209375 39.93 84.10625 35 84 C35 99.84 35 115.68 35 132 C23.45 132 11.9 132 0 132 C0 88.44 0 44.88 0 0 Z " fill="#FDFEFE" transform="translate(1271,180)"/>
<path d="M0 0 C1.99629731 1.92078724 3.41281522 3.69602209 5 6 C5 6.66 5 7.32 5 8 C5.66 8 6.32 8 7 8 C7.24621094 7.41347656 7.49242187 6.82695312 7.74609375 6.22265625 C11.27691423 -0.03602553 18.27438161 -3.56894771 24.95703125 -5.4921875 C25.96830078 -5.74355469 25.96830078 -5.74355469 27 -6 C27.96679688 -6.27263672 27.96679688 -6.27263672 28.953125 -6.55078125 C37.86215261 -8.50600677 46.77678224 -6.62289051 55 -3 C62.46030639 1.8906453 66.90104197 8.35235113 69.37149048 16.85247803 C70.67783732 23.3945514 70.36187084 30.08380242 70.29296875 36.7265625 C70.28736255 38.32652384 70.2830973 39.92649038 70.28010559 41.52645874 C70.26873728 45.70549126 70.23934079 49.88420314 70.20599365 54.06311035 C70.16967489 59.09427771 70.15609337 64.12555322 70.13863373 69.15681458 C70.10969725 76.77143164 70.05215516 84.38534736 70 92 C59.44 92 48.88 92 38 92 C37.96261719 87.60558594 37.92523437 83.21117187 37.88671875 78.68359375 C37.84857855 75.16672101 37.807506 71.64990955 37.7644577 68.13309479 C37.71990401 64.4278624 37.68044719 60.7227403 37.65356445 57.01733398 C37.62744281 53.44447208 37.5869793 49.87202747 37.53681374 46.29942513 C37.52020455 44.94042233 37.50865336 43.58134745 37.50238609 42.22225761 C37.55695488 32.17377422 37.55695488 32.17377422 34 23 C30.31996337 20.12777629 27.39832176 19.80269212 22.875 20.0625 C19.82215292 20.50189028 18.18311208 20.88262046 15.5625 22.5625 C10.58439565 30.32834279 10.53427175 37.69612182 10.48828125 46.6875 C10.46135445 48.63487061 10.46135445 48.63487061 10.43388367 50.62158203 C10.38667401 54.0474958 10.35667826 57.47334508 10.33044434 60.8994751 C10.30049082 64.4057683 10.25416967 67.91184422 10.20898438 71.41796875 C10.12175499 78.27866113 10.06156365 85.13883771 10 92 C-0.56 92 -11.12 92 -22 92 C-22.03738281 87.60558594 -22.07476563 83.21117187 -22.11328125 78.68359375 C-22.15142145 75.16672101 -22.192494 71.64990955 -22.2355423 68.13309479 C-22.28009599 64.4278624 -22.31955281 60.7227403 -22.34643555 57.01733398 C-22.37255719 53.44447208 -22.4130207 49.87202747 -22.46318626 46.29942513 C-22.47979545 44.94042233 -22.49134664 43.58134745 -22.49761391 42.22225761 C-22.42371396 32.1658138 -22.42371396 32.1658138 -26 23 C-30.68668093 19.87554605 -35.51651032 20.43606872 -41 21 C-44.32748458 22.49397267 -45.42596019 23.63254697 -46.82746887 26.97116089 C-49.15624185 34.16430042 -49.47149814 40.92231549 -49.51171875 48.4453125 C-49.52966995 49.69633759 -49.54762115 50.94736267 -49.56611633 52.23629761 C-49.61081283 55.52742641 -49.64326927 58.81836294 -49.66955566 62.10968018 C-49.69958363 65.48210678 -49.74588024 68.85430983 -49.79101562 72.2265625 C-49.87806105 78.81772274 -49.93837601 85.40835788 -50 92 C-60.56 92 -71.12 92 -82 92 C-82 60.32 -82 28.64 -82 -4 C-71.77 -4 -61.54 -4 -51 -4 C-50.67 -0.37 -50.34 3.26 -50 7 C-49.44441406 6.25105469 -48.88882812 5.50210938 -48.31640625 4.73046875 C-42.88435683 -1.67257096 -35.35127082 -5.8402731 -27.0234375 -6.9140625 C-17.41126888 -7.1872766 -7.72373601 -6.12227023 0 0 Z " fill="#FDFEFE" transform="translate(1587,220)"/>
<path d="M0 0 C5.70650464 4.8381235 9.69722928 10.56971729 11 18 C11.30865247 22.61887312 11.32475216 27.2313699 11.34375 31.859375 C11.35741643 33.21308533 11.37220724 34.56678472 11.38806152 35.92047119 C11.43602252 40.19691513 11.46908165 44.47340338 11.5 48.75 C11.53590176 53.69801696 11.57820574 58.6458212 11.63594055 63.59363556 C11.65571052 65.55583066 11.66413505 67.51812977 11.67224121 69.48040771 C11.68565552 70.69826965 11.69906982 71.91613159 11.71289062 73.17089844 C11.72382751 74.75472321 11.72382751 74.75472321 11.73498535 76.37054443 C12.09434099 81.29202833 13.1172744 86.1450092 14 91 C3.44 91 -7.12 91 -18 91 C-18.495 87.04 -18.495 87.04 -19 83 C-19.68964844 83.47050781 -20.37929687 83.94101562 -21.08984375 84.42578125 C-33.51798281 92.66006269 -46.00788902 95.85948633 -60.97265625 93.5390625 C-69.07701061 91.60131251 -76.22460729 88.15244938 -80.9375 81.0625 C-85.52231295 72.68335908 -86.52974009 63.45519344 -83.875 54.25 C-80.6193004 45.91005718 -75.25585171 41.96526658 -67.234375 38.27734375 C-57.23131799 34.32686109 -46.66661866 33.31413361 -36.0456543 32.17700195 C-30.81036863 31.57236832 -26.52816963 30.92428747 -22 28 C-20.59542263 25.19084526 -20.75104843 23.11189466 -21 20 C-22.45717976 17.08564048 -23.63291589 16.17906542 -26.5625 14.75 C-33.76176075 13.1792522 -40.66541604 12.94586627 -47 17 C-48.32 19.64 -49.64 22.28 -51 25 C-60.9 25 -70.8 25 -81 25 C-79.95966489 14.59664894 -78.7451373 9.21886633 -71.25 2.1875 C-53.44524955 -12.08927212 -18.87483519 -12.54599499 0 0 Z " fill="#FBFCFD" transform="translate(1749,221)"/>
<path d="M0 0 C5.55000385 5.13548074 8.04874436 10.27936824 8.34594727 17.83325195 C8.37376342 19.96551943 8.38649188 22.09801986 8.38671875 24.23046875 C8.40653053 25.94945625 8.40653053 25.94945625 8.42674255 27.70317078 C8.46750096 31.36203367 8.48923136 35.02064986 8.5078125 38.6796875 C8.60548146 64.15838545 8.60548146 64.15838545 11.9453125 89.3671875 C1.3853125 89.3671875 -9.1746875 89.3671875 -20.0546875 89.3671875 C-21.0446875 87.0571875 -22.0346875 84.7471875 -23.0546875 82.3671875 C-23.68375 82.76550781 -24.3128125 83.16382813 -24.9609375 83.57421875 C-37.04840869 91.05607215 -48.74402052 94.12100971 -63.02734375 91.90625 C-71.66181989 89.84174797 -79.30716471 85.80031001 -84.125 78.125 C-88.12109343 70.56936116 -88.35101133 60.95450728 -86.4375 52.70703125 C-83.57861114 45.33210998 -77.86737553 40.52720557 -70.8671875 37.1171875 C-60.35901521 32.95290337 -49.25668735 31.73753551 -38.10107422 30.54467773 C-29.90967819 29.67917045 -29.90967819 29.67917045 -23.0546875 25.3671875 C-22.54377277 20.35790403 -22.54377277 20.35790403 -24.8046875 16.0546875 C-30.40671843 11.8531643 -35.19671016 11.77464272 -42.0546875 12.3671875 C-45.10757364 12.93191552 -46.33340484 13.59002331 -49.0546875 15.3671875 C-50.3746875 18.0071875 -51.6946875 20.6471875 -53.0546875 23.3671875 C-62.9546875 23.3671875 -72.8546875 23.3671875 -83.0546875 23.3671875 C-83.0546875 14.10927138 -80.5410291 8.02377617 -74.2421875 1.22265625 C-56.31146718 -13.98643688 -18.67199739 -14.83820325 0 0 Z " fill="#FCFDFE" transform="translate(1952.0546875,222.6328125)"/>
<path d="M0 0 C6.06839183 5.89939864 8.66367347 11.36869822 8.92773438 19.76391602 C8.9488483 22.26050042 8.95512963 24.75723956 8.94921875 27.25390625 C8.95847312 28.60043078 8.96945097 29.94694444 8.98205566 31.29344177 C9.0186512 35.54978081 9.03249046 39.80602702 9.04296875 44.0625 C9.05514708 48.97820498 9.07725347 53.89348675 9.12297058 58.80900383 C9.13628311 60.75279697 9.13221719 62.69668504 9.12756348 64.64051819 C9.13767456 65.85815353 9.14778564 67.07578888 9.15820312 68.33032227 C9.16025757 69.37954361 9.16231201 70.42876495 9.16442871 71.50978088 C9.74067908 77.58407953 11.26451214 83.53386916 12.54296875 89.5 C1.98296875 89.5 -8.57703125 89.5 -19.45703125 89.5 C-20.44703125 87.19 -21.43703125 84.88 -22.45703125 82.5 C-23.01648437 82.88671875 -23.5759375 83.2734375 -24.15234375 83.671875 C-36.31676422 91.57288122 -49.59370688 94.46621256 -63.91015625 91.875 C-72.54516948 89.62588028 -78.92811465 85.85091158 -83.89453125 78.3203125 C-87.69605505 70.47966966 -87.83452584 60.39312255 -85.8671875 51.9765625 C-83.15255837 45.6465978 -77.3339926 40.2508989 -71.13085938 37.44946289 C-64.22320387 34.75948637 -57.4002137 33.45402361 -50.08203125 32.4375 C-47.88496537 32.10715435 -45.68834249 31.77384806 -43.4921875 31.4375 C-42.4520752 31.27894531 -41.41196289 31.12039062 -40.34033203 30.95703125 C-32.26590588 29.75167418 -32.26590588 29.75167418 -24.45703125 27.5 C-22.1295378 24.00875983 -21.95403809 22.60777749 -22.45703125 18.5 C-25.16497844 14.75053466 -27.9983989 13.47279251 -32.45703125 12.5 C-37.75769396 11.97862334 -42.04178233 11.86819245 -46.95703125 14.0625 C-50.13661097 16.85121127 -50.13661097 16.85121127 -52.45703125 23.5 C-62.35703125 23.5 -72.25703125 23.5 -82.45703125 23.5 C-82.45703125 14.11875956 -80.53349903 8.46822925 -74.14453125 1.625 C-57.38188323 -13.76484495 -17.48646551 -14.91382986 0 0 Z " fill="#FCFDFE" transform="translate(2185.45703125,222.5)"/>
<path d="M0 0 C9.62445536 8.7039957 15.1891404 21.29093324 16.640625 34.10546875 C16.640625 38.39546875 16.640625 42.68546875 16.640625 47.10546875 C-7.119375 47.10546875 -30.879375 47.10546875 -55.359375 47.10546875 C-51.84476275 59.23470285 -51.84476275 59.23470285 -43.359375 65.91796875 C-37.35069866 68.19258802 -29.83329253 68.46694187 -23.84765625 66.12109375 C-20.96006211 64.39173978 -18.86693397 63.00224448 -17.1887207 60.03710938 C-15.359375 58.10546875 -15.359375 58.10546875 -12.26489258 57.65136719 C-11.02376709 57.67231445 -9.7826416 57.69326172 -8.50390625 57.71484375 C-7.84226974 57.72050354 -7.18063324 57.72616333 -6.49894714 57.73199463 C-4.38918168 57.75435628 -2.28112548 57.80454504 -0.171875 57.85546875 C1.25974106 57.87553435 2.6913838 57.89378503 4.12304688 57.91015625 C7.62946015 57.95421806 11.13487572 58.02324098 14.640625 58.10546875 C11.21188309 69.23658656 5.4480408 77.60400558 -4.859375 83.546875 C-20.86145512 91.33858552 -38.38550393 92.33429251 -55.359375 87.10546875 C-67.73398708 82.3797907 -77.84699985 74.31882495 -83.359375 62.10546875 C-88.58771796 49.08362706 -89.85616175 33.99580617 -84.609375 20.76953125 C-77.73783626 6.12456431 -68.1583847 -2.72243242 -53.359375 -8.89453125 C-35.14719847 -15.37683137 -15.01635022 -12.05783088 0 0 Z " fill="#FCFDFD" transform="translate(1478.359375,224.89453125)"/>
<path d="M0 0 C38.28 0 76.56 0 116 0 C116 9.9 116 19.8 116 30 C102.8 30 89.6 30 76 30 C76 63.66 76 97.32 76 132 C64.45 132 52.9 132 41 132 C41 98.34 41 64.68 41 30 C27.47 30 13.94 30 0 30 C0 20.1 0 10.2 0 0 Z " fill="#FCFDFD" transform="translate(1767,180)"/>
<path d="M0 0 C28.05 0 56.1 0 85 0 C85 25 85 25 78.5 33.125 C76.66501147 34.63455253 74.82798595 36.14454543 72.921875 37.56323242 C64.54383153 43.82654363 57.34892616 51.53428326 50 58.9375 C46.04 62.918125 42.08 66.89875 38 71 C54.83 71.33 71.66 71.66 89 72 C89 79.92 89 87.84 89 96 C58.31 96 27.62 96 -4 96 C-4 68.75543432 -4 68.75543432 5.28100586 59.1640625 C5.96042236 58.5865625 6.63983887 58.0090625 7.33984375 57.4140625 C8.48815674 56.41681152 8.48815674 56.41681152 9.65966797 55.39941406 C10.43197754 54.73135742 11.20428711 54.06330078 12 53.375 C13.52778963 51.96443291 15.04997758 50.54777362 16.56640625 49.125 C21.30724595 44.71447209 26.16242298 40.44625356 31.06640625 36.21856689 C31.74574219 35.63033142 32.42507812 35.04209595 33.125 34.43603516 C33.72570313 33.91933258 34.32640625 33.40263 34.9453125 32.87026978 C37.72130394 30.34343643 40.34566249 27.65433751 43 25 C28.81 24.67 14.62 24.34 0 24 C0 16.08 0 8.16 0 0 Z " fill="#FEFEFE" transform="translate(2211,216)"/>
<path d="M0 0 C28.05 0 56.1 0 85 0 C85 25 85 25 81 30.625 C79.36180784 31.79107428 77.68989811 32.91020775 76 34 C70.59622075 38.45008022 65.58162583 43.27919357 60.65625 48.24609375 C60.07456055 48.82879028 59.49287109 49.41148682 58.89355469 50.01184082 C56.75959351 52.15096121 54.63003986 54.2944749 52.5 56.4375 C47.715 61.243125 42.93 66.04875 38 71 C62.75 71.495 62.75 71.495 88 72 C88 79.92 88 87.84 88 96 C57.64 96 27.28 96 -4 96 C-4 68.15212094 -4 68.15212094 1.28356934 62.85836792 C2.04592896 62.22190338 2.80828857 61.58543884 3.59375 60.9296875 C4.37383423 60.18260529 5.15391846 59.43552307 5.9576416 58.665802 C8.4187723 56.33580115 10.95157335 54.10876404 13.5 51.875 C15.17231997 50.31985929 16.83904098 48.75867517 18.5 47.19140625 C24.94871905 41.15388316 31.58603278 35.33891603 38.26135254 29.55422974 C39.89466927 28.09415834 41.45088218 26.54911782 43 25 C28.81 24.67 14.62 24.34 0 24 C0 16.08 0 8.16 0 0 Z " fill="#FEFEFE" transform="translate(2310,216)"/>
<path d="M0 0 C10.56 0 21.12 0 32 0 C32 43.56 32 87.12 32 132 C21.44 132 10.88 132 0 132 C0 88.44 0 44.88 0 0 Z " fill="#FEFEFE" transform="translate(2059,180)"/>
<path d="M0 0 C0 9.24 0 18.48 0 28 C-2.619375 27.938125 -5.23875 27.87625 -7.9375 27.8125 C-14.44651932 27.74759525 -20.04452528 28.12130047 -26 31 C-27.07121094 31.49306641 -27.07121094 31.49306641 -28.1640625 31.99609375 C-30.59846125 33.3272437 -30.9609001 34.43688691 -32 37 C-32.50378174 37.9494751 -33.00756348 38.8989502 -33.52661133 39.87719727 C-35.77502352 45.14849274 -35.47960711 50.63295702 -35.51171875 56.27734375 C-35.52966995 57.4438295 -35.54762115 58.61031525 -35.56611633 59.81214905 C-35.62009379 63.52056312 -35.65407574 67.22884938 -35.6875 70.9375 C-35.72068405 73.45900211 -35.75517471 75.98048738 -35.79101562 78.50195312 C-35.87826124 84.6679859 -35.93844057 90.83344371 -36 97 C-46.56 97 -57.12 97 -68 97 C-68 65.32 -68 33.64 -68 1 C-57.77 1 -47.54 1 -37 1 C-36.505 7.93 -36.505 7.93 -36 15 C-35.195625 13.80375 -34.39125 12.6075 -33.5625 11.375 C-28.93212978 5.23022635 -22.82117569 0.76193829 -15.1875 -0.76171875 C-3.96774194 -1.98387097 -3.96774194 -1.98387097 0 0 Z " fill="#FEFEFE" transform="translate(2045,215)"/>
<path d="M0 0 C7.26 0 14.52 0 22 0 C26.21045026 16.62339151 30.2925337 33.2566038 34 50 C36.2099413 45.15646629 37.21029552 40.09402479 38.34765625 34.921875 C38.56441513 33.95469543 38.78117401 32.98751587 39.00450134 31.99102783 C39.69445567 28.91155258 40.37905192 25.83092529 41.0625 22.75 C41.74970126 19.65483595 42.43814123 16.5599812 43.13121033 13.46612549 C43.5620778 11.54270944 43.98954111 9.61852717 44.41334534 7.69354248 C44.70386024 6.39649384 44.70386024 6.39649384 45.00024414 5.07324219 C45.16964005 4.30888855 45.33903595 3.54453491 45.51356506 2.75701904 C46 1 46 1 47 0 C54.26 0 61.52 0 69 0 C69 23.76 69 47.52 69 72 C64.05 72 59.1 72 54 72 C53.67 56.49 53.34 40.98 53 25 C49.75237011 39.34496186 49.75237011 39.34496186 46.50805664 53.69067383 C46.10054349 55.48782025 45.69291773 57.28494115 45.28515625 59.08203125 C44.96895325 60.48406799 44.96895325 60.48406799 44.6463623 61.91442871 C44.44345581 62.80738647 44.24054932 63.70034424 44.03149414 64.62036133 C43.85606583 65.39535477 43.68063751 66.17034821 43.49989319 66.96882629 C43.08168014 68.66811598 42.55339747 70.33980759 42 72 C36.72 72 31.44 72 26 72 C20.555 47.745 20.555 47.745 15 23 C14.67 39.17 14.34 55.34 14 72 C9.38 72 4.76 72 0 72 C0 48.24 0 24.48 0 0 Z " fill="#00649C" transform="translate(18,525)"/>
<path d="M0 0 C8.89852827 5.48055052 12.39155736 16.6867538 15.01953125 26.21484375 C18.74974564 42.05924266 17.89443862 63.44231551 11.01953125 78.21484375 C10.62378906 79.1171875 10.22804688 80.01953125 9.8203125 80.94921875 C7.26579582 86.14311978 3.85484034 90.00658179 -0.98046875 93.21484375 C-4.59977573 94.42127941 -7.1727788 94.53752934 -10.98046875 94.21484375 C-20.5009024 89.35747964 -24.68953601 80.98261221 -27.98046875 71.21484375 C-34.08006591 51.76932801 -32.75380443 29.3217955 -23.73046875 11.02734375 C-18.34334864 1.90012114 -10.97239243 -4.35000173 0 0 Z " fill="#FEEA00" transform="translate(408.98046875,216.78515625)"/>
<path d="M0 0 C10.56 0 21.12 0 32 0 C32 31.68 32 63.36 32 96 C21.44 96 10.88 96 0 96 C0 64.32 0 32.64 0 0 Z " fill="#FCFDFE" transform="translate(2409,216)"/>
<path d="M0 0 C1.54300781 -0.03867187 1.54300781 -0.03867187 3.1171875 -0.078125 C8.02698107 0.45748884 11.31507628 3.28672599 15.125 6.25 C16.5171875 5.0434375 16.5171875 5.0434375 17.9375 3.8125 C22.5863363 -0.21649146 27.16064936 -0.09856021 33.109375 -0.01953125 C37.66225403 0.38739706 39.58973357 1.30394464 43.125 4.25 C47.16038553 9.99654604 47.67682761 15.36771762 47.515625 22.21875 C47.50996521 23.13966431 47.50430542 24.06057861 47.49847412 25.00939941 C47.47625236 27.92348307 47.42608383 30.83629397 47.375 33.75 C47.3549166 35.73696129 47.33666906 37.72394204 47.3203125 39.7109375 C47.2764343 44.55777499 47.20750689 49.40367242 47.125 54.25 C42.175 54.25 37.225 54.25 32.125 54.25 C32.095271 52.59230591 32.095271 52.59230591 32.06494141 50.90112305 C31.98889551 46.80274587 31.90017671 42.70472421 31.80761719 38.60668945 C31.76932321 36.83267229 31.73447105 35.05857736 31.703125 33.28442383 C31.65748328 30.73490601 31.59948815 28.1859237 31.5390625 25.63671875 C31.52751129 24.84287277 31.51596008 24.04902679 31.50405884 23.23112488 C31.40144615 19.40676092 31.29435934 17.50403901 29.125 14.25 C26.06664023 13.38568093 23.95682452 13.01893763 20.875 13.875 C18.46537087 15.76828003 18.04808717 17.31967773 17.125 20.25 C16.89403096 22.92206065 16.75396057 25.5019183 16.7109375 28.17578125 C16.69157135 28.92337204 16.6722052 29.67096283 16.6522522 30.44120789 C16.59276082 32.81485806 16.54619408 35.18855754 16.5 37.5625 C16.46179211 39.17775482 16.42273875 40.79298987 16.3828125 42.40820312 C16.2870847 46.3553071 16.20294233 50.30250639 16.125 54.25 C11.505 54.25 6.885 54.25 2.125 54.25 C2.10518066 53.24622314 2.08536133 52.24244629 2.06494141 51.20825195 C1.98866251 47.47135034 1.89998014 43.73482683 1.80761719 39.99829102 C1.76941928 38.3834583 1.73455055 36.76854316 1.703125 35.15356445 C1.65727391 32.82733783 1.59931416 30.50167408 1.5390625 28.17578125 C1.52751129 27.45787918 1.51596008 26.73997711 1.50405884 26.00032043 C1.38779169 22.01939335 1.00880804 18.78946325 -0.875 15.25 C-3.08325949 13.64980539 -3.08325949 13.64980539 -5.875 13.25 C-9.10949208 13.88317366 -9.10949208 13.88317366 -11.875 15.25 C-13.48451543 18.46903085 -13.11734748 21.99838832 -13.19140625 25.5390625 C-13.21218735 26.35748627 -13.23296844 27.17591003 -13.25437927 28.01913452 C-13.31984812 30.63766966 -13.37874726 33.25630639 -13.4375 35.875 C-13.48068776 37.64844807 -13.52430214 39.42188581 -13.56835938 41.1953125 C-13.67552676 45.54677046 -13.77680169 49.89833077 -13.875 54.25 C-18.825 54.25 -23.775 54.25 -28.875 54.25 C-28.875 36.76 -28.875 19.27 -28.875 1.25 C-24.255 1.25 -19.635 1.25 -14.875 1.25 C-14.545 2.57 -14.215 3.89 -13.875 5.25 C-13.111875 4.610625 -12.34875 3.97125 -11.5625 3.3125 C-7.67689207 0.33052182 -4.77781573 0.07148851 0 0 Z " fill="#00649C" transform="translate(2105.875,542.75)"/>
<path d="M0 0 C1.54300781 -0.03867187 1.54300781 -0.03867187 3.1171875 -0.078125 C8.02698107 0.45748884 11.31507628 3.28672599 15.125 6.25 C16.5171875 5.0434375 16.5171875 5.0434375 17.9375 3.8125 C22.5863363 -0.21649146 27.16064936 -0.09856021 33.109375 -0.01953125 C37.66225403 0.38739706 39.58973357 1.30394464 43.125 4.25 C47.16038553 9.99654604 47.67682761 15.36771762 47.515625 22.21875 C47.50996521 23.13966431 47.50430542 24.06057861 47.49847412 25.00939941 C47.47625236 27.92348307 47.42608383 30.83629397 47.375 33.75 C47.3549166 35.73696129 47.33666906 37.72394204 47.3203125 39.7109375 C47.2764343 44.55777499 47.20750689 49.40367242 47.125 54.25 C42.175 54.25 37.225 54.25 32.125 54.25 C32.095271 52.59230591 32.095271 52.59230591 32.06494141 50.90112305 C31.98889551 46.80274587 31.90017671 42.70472421 31.80761719 38.60668945 C31.76932321 36.83267229 31.73447105 35.05857736 31.703125 33.28442383 C31.65748328 30.73490601 31.59948815 28.1859237 31.5390625 25.63671875 C31.52751129 24.84287277 31.51596008 24.04902679 31.50405884 23.23112488 C31.40144615 19.40676092 31.29435934 17.50403901 29.125 14.25 C26.06664023 13.38568093 23.95682452 13.01893763 20.875 13.875 C18.46537087 15.76828003 18.04808717 17.31967773 17.125 20.25 C16.89403096 22.92206065 16.75396057 25.5019183 16.7109375 28.17578125 C16.69157135 28.92337204 16.6722052 29.67096283 16.6522522 30.44120789 C16.59276082 32.81485806 16.54619408 35.18855754 16.5 37.5625 C16.46179211 39.17775482 16.42273875 40.79298987 16.3828125 42.40820312 C16.2870847 46.3553071 16.20294233 50.30250639 16.125 54.25 C11.505 54.25 6.885 54.25 2.125 54.25 C2.10518066 53.24622314 2.08536133 52.24244629 2.06494141 51.20825195 C1.98866251 47.47135034 1.89998014 43.73482683 1.80761719 39.99829102 C1.76941928 38.3834583 1.73455055 36.76854316 1.703125 35.15356445 C1.65727391 32.82733783 1.59931416 30.50167408 1.5390625 28.17578125 C1.52751129 27.45787918 1.51596008 26.73997711 1.50405884 26.00032043 C1.38779169 22.01939335 1.00880804 18.78946325 -0.875 15.25 C-3.08325949 13.64980539 -3.08325949 13.64980539 -5.875 13.25 C-9.10949208 13.88317366 -9.10949208 13.88317366 -11.875 15.25 C-13.48451543 18.46903085 -13.11734748 21.99838832 -13.19140625 25.5390625 C-13.21218735 26.35748627 -13.23296844 27.17591003 -13.25437927 28.01913452 C-13.31984812 30.63766966 -13.37874726 33.25630639 -13.4375 35.875 C-13.48068776 37.64844807 -13.52430214 39.42188581 -13.56835938 41.1953125 C-13.67552676 45.54677046 -13.77680169 49.89833077 -13.875 54.25 C-18.825 54.25 -23.775 54.25 -28.875 54.25 C-28.875 36.76 -28.875 19.27 -28.875 1.25 C-24.255 1.25 -19.635 1.25 -14.875 1.25 C-14.545 2.57 -14.215 3.89 -13.875 5.25 C-13.111875 4.610625 -12.34875 3.97125 -11.5625 3.3125 C-7.67689207 0.33052182 -4.77781573 0.07148851 0 0 Z " fill="#00649C" transform="translate(1175.875,542.75)"/>
<path d="M0 0 C1.58206057 0.00667536 3.16410534 0.0186375 4.74609375 0.03515625 C5.55240234 0.03966797 6.35871094 0.04417969 7.18945312 0.04882812 C9.18753131 0.06065107 11.18557158 0.07858711 13.18359375 0.09765625 C16.70484953 7.54573417 19.45613474 15.22446214 22.16796875 22.99609375 C22.63288303 24.3213266 23.09799481 25.64649019 23.56329346 26.97158813 C24.53054528 29.72904831 25.49500446 32.48746505 26.45751953 35.24658203 C27.69138559 38.78262039 28.93295801 42.31589786 30.17666245 45.84848595 C31.13562753 48.57534154 32.09022367 51.30371086 33.0435257 54.03255081 C33.49981798 55.33680666 33.95754617 56.64056109 34.41674042 57.94379807 C35.05542703 59.75832181 35.68753937 61.57515558 36.31933594 63.39208984 C36.68033386 64.42417572 37.04133179 65.4562616 37.41326904 66.5196228 C38.18359375 69.09765625 38.18359375 69.09765625 38.18359375 72.09765625 C32.57359375 72.09765625 26.96359375 72.09765625 21.18359375 72.09765625 C17.18359375 60.34765625 17.18359375 60.34765625 17.18359375 58.09765625 C8.60359375 58.09765625 0.02359375 58.09765625 -8.81640625 58.09765625 C-9.80640625 63.04765625 -9.80640625 63.04765625 -10.81640625 68.09765625 C-11.47640625 69.41765625 -12.13640625 70.73765625 -12.81640625 72.09765625 C-18.42640625 72.09765625 -24.03640625 72.09765625 -29.81640625 72.09765625 C-24.24490329 55.7633205 -18.56390959 39.46998843 -12.77371216 23.21185303 C-12.09263108 21.29898881 -11.41251959 19.3857791 -10.73336792 17.472229 C-9.77313699 14.76817514 -8.80905028 12.06552894 -7.84375 9.36328125 C-7.55250244 8.54167511 -7.26125488 7.72006897 -6.96118164 6.87356567 C-4.5379648 0.11611988 -4.5379648 0.11611988 0 0 Z M4.18359375 19.09765625 C1.54359375 27.34765625 -1.09640625 35.59765625 -3.81640625 44.09765625 C1.46359375 44.09765625 6.74359375 44.09765625 12.18359375 44.09765625 C10.5059436 35.55689184 7.84357194 27.37201589 5.18359375 19.09765625 C4.85359375 19.09765625 4.52359375 19.09765625 4.18359375 19.09765625 Z " fill="#00649C" transform="translate(1868.81640625,524.90234375)"/>
<path d="M0 0 C5.26874216 4.43865586 7.45209101 9.37838931 9 16 C9 19.96 9 23.92 9 28 C-3.54 28 -16.08 28 -29 28 C-26.71275522 34.57155912 -26.71275522 34.57155912 -22 38 C-16.70509188 39.11022267 -13.0100664 39.44393483 -8 37 C-7.67 36.01 -7.34 35.02 -7 34 C-2.05 34 2.9 34 8 34 C6.85089848 40.8946091 4.95723718 43.39903243 0 48 C-7.09296621 52.39763905 -14.83677101 52.73194581 -23 52 C-29.84162751 50.23935739 -36.28913825 47.21011647 -40.21484375 41.11328125 C-45.01115681 32.15219812 -45.16668824 21.77134902 -42.68359375 12.02734375 C-40.36764687 5.15890699 -34.78567324 -0.06099663 -28.4375 -3.3125 C-18.79648819 -6.03175974 -8.59640281 -5.51309264 0 0 Z M-26 11 C-26.99 13.31 -27.98 15.62 -29 18 C-21.41 18 -13.82 18 -6 18 C-7.5355892 12.48646641 -7.5355892 12.48646641 -11 9 C-16.5346124 7.1551292 -21.4602971 7.09081139 -26 11 Z " fill="#00649C" transform="translate(233,547)"/>
<path d="M0 0 C7.42976548 7.86788433 7.21484375 15.68015578 7.21484375 26.49609375 C-5.32515625 26.49609375 -17.86515625 26.49609375 -30.78515625 26.49609375 C-27.72150972 34.1140988 -27.72150972 34.1140988 -24.03515625 36.55859375 C-19.65233705 37.82286852 -17.23980215 37.57383066 -12.78515625 36.49609375 C-12.20507812 35.82191406 -11.625 35.14773438 -11.02734375 34.453125 C-7.87771702 31.70406056 -4.99816628 32.05131443 -1.03515625 32.24609375 C-0.33777344 32.26414062 0.35960937 32.2821875 1.078125 32.30078125 C2.79095914 32.34770821 4.50308199 32.4194477 6.21484375 32.49609375 C5.50104542 38.99443962 2.90435482 42.1436112 -1.78515625 46.49609375 C-8.87812246 50.8937328 -16.62192726 51.22803956 -24.78515625 50.49609375 C-31.62678376 48.73545114 -38.0742945 45.70621022 -42 39.609375 C-47.08908854 30.10129143 -46.96748881 19.2874331 -43.88671875 9.109375 C-41.08812715 2.47016301 -36.23738013 -1.99421618 -29.67578125 -4.82421875 C-20.027606 -8.29277762 -7.93344174 -6.68353407 0 0 Z M-27.78515625 9.49609375 C-28.77515625 11.80609375 -29.76515625 14.11609375 -30.78515625 16.49609375 C-23.19515625 16.49609375 -15.60515625 16.49609375 -7.78515625 16.49609375 C-9.7705665 10.02704124 -9.7705665 10.02704124 -14.78515625 6.49609375 C-19.73887717 5.60362176 -23.92670449 6.07860791 -27.78515625 9.49609375 Z " fill="#00649C" transform="translate(1468.78515625,548.50390625)"/>
<path d="M0 0 C6.38143891 6.02831581 9.10902446 11.23874057 10 20 C10 22.64 10 25.28 10 28 C-2.54 28 -15.08 28 -28 28 C-25.92435608 35.64118632 -25.92435608 35.64118632 -22.375 38.0625 C-18.09131731 39.25241186 -14.25519713 39.41582014 -10 38 C-9.40960937 37.32582031 -8.81921875 36.65164063 -8.2109375 35.95703125 C-5.08759263 33.19237439 -2.20037058 33.5558419 1.75 33.75 C2.44738281 33.76804687 3.14476563 33.78609375 3.86328125 33.8046875 C5.57611539 33.85161446 7.28823824 33.92335395 9 34 C8.16360979 39.52786631 5.86739351 43.02448581 2 47 C-6.02446462 52.3907152 -15.08444206 53.17596851 -24.50390625 51.57421875 C-31.67579557 49.54114404 -37.08252555 45.15455474 -40.9375 38.8125 C-44.30796611 29.89067793 -44.65922597 17.74370577 -40.9609375 8.8203125 C-37.23290353 1.7582644 -32.26459703 -1.06349893 -25 -4 C-16.85742948 -6.42544654 -6.87497983 -5.0764619 0 0 Z M-27 13 C-27.33 14.65 -27.66 16.3 -28 18 C-20.74 18 -13.48 18 -6 18 C-6.35218402 12.11475475 -6.35218402 12.11475475 -9.5625 9.625 C-16.7898913 6.20841502 -21.63323442 7.10964753 -27 13 Z " fill="#00649C" transform="translate(2470,547)"/>
<path d="M0 0 C7.53524364 8.33089048 8 15.81030242 8 27 C-4.54 27 -17.08 27 -30 27 C-27.87789989 32.96512437 -27.87789989 32.96512437 -24 37 C-19.75366001 38.25640771 -16.12039094 38.50060021 -12.0625 36.6875 C-9.94921164 35.01554746 -9.94921164 35.01554746 -8 33 C-5.41935871 32.85502015 -2.95056116 32.81322455 -0.375 32.875 C0.33140625 32.88402344 1.0378125 32.89304687 1.765625 32.90234375 C3.51056098 32.92592397 5.25532295 32.96179539 7 33 C6.26250453 39.01864119 4.4879913 42.02354319 0 46 C-7.63623657 50.86608549 -15.04421342 51.78404543 -24 51 C-30.64077162 49.35624465 -36.52065931 46.24045429 -41 41 C-45.76398102 33.05417188 -45.97100925 23.20911422 -44.57421875 14.27734375 C-42.77911586 7.15199669 -39.13154329 1.75170354 -32.9765625 -2.34765625 C-22.45636411 -7.97052091 -9.64867278 -7.13089302 0 0 Z M-28 11 C-28.66 12.98 -29.32 14.96 -30 17 C-22.41 17 -14.82 17 -7 17 C-9.24167007 10.39393839 -9.24167007 10.39393839 -12.1875 8.0625 C-18.32254506 5.74481631 -23.42557722 5.88740984 -28 11 Z " fill="#00649C" transform="translate(623,548)"/>
<path d="M0 0 C7.53524364 8.33089048 8 15.81030242 8 27 C-4.54 27 -17.08 27 -30 27 C-27.87789989 32.96512437 -27.87789989 32.96512437 -24 37 C-19.75366001 38.25640771 -16.12039094 38.50060021 -12.0625 36.6875 C-9.94921164 35.01554746 -9.94921164 35.01554746 -8 33 C-5.41935871 32.85502015 -2.95056116 32.81322455 -0.375 32.875 C0.33140625 32.88402344 1.0378125 32.89304687 1.765625 32.90234375 C3.51056098 32.92592397 5.25532295 32.96179539 7 33 C6.26250453 39.01864119 4.4879913 42.02354319 0 46 C-7.63623657 50.86608549 -15.04421342 51.78404543 -24 51 C-30.64077162 49.35624465 -36.52065931 46.24045429 -41 41 C-45.76398102 33.05417188 -45.97100925 23.20911422 -44.57421875 14.27734375 C-42.77911586 7.15199669 -39.13154329 1.75170354 -32.9765625 -2.34765625 C-22.45636411 -7.97052091 -9.64867278 -7.13089302 0 0 Z M-28 11 C-28.66 12.98 -29.32 14.96 -30 17 C-22.41 17 -14.82 17 -7 17 C-9.24167007 10.39393839 -9.24167007 10.39393839 -12.1875 8.0625 C-18.32254506 5.74481631 -23.42557722 5.88740984 -28 11 Z " fill="#00649C" transform="translate(536,548)"/>
<path d="M0 0 C7.57219439 8.23064607 8 15.96821564 8 27 C-4.54 27 -17.08 27 -30 27 C-28.1816737 35.65590089 -28.1816737 35.65590089 -24.375 37.625 C-20.16234748 38.0930725 -16.07843857 38.29026966 -12 37 C-11.40960938 36.32710937 -10.81921875 35.65421875 -10.2109375 34.9609375 C-7.08827965 32.1913717 -4.20249809 32.55573733 -0.25 32.75 C0.44738281 32.76804687 1.14476562 32.78609375 1.86328125 32.8046875 C3.57611539 32.85161446 5.28823824 32.92335395 7 33 C6.26250453 39.01864119 4.4879913 42.02354319 0 46 C-7.63623657 50.86608549 -15.04421342 51.78404543 -24 51 C-30.54222124 49.38063831 -36.77320507 46.37038401 -41 41 C-45.86626891 32.35045971 -46.48198064 22.41134941 -44.26953125 12.83984375 C-42.49057704 7.44489282 -40.55685673 3.58038743 -36 0 C-34.63875 -1.0828125 -34.63875 -1.0828125 -33.25 -2.1875 C-22.71819837 -8.06100476 -9.73420507 -7.17705838 0 0 Z M-28 11 C-28.66 12.98 -29.32 14.96 -30 17 C-22.41 17 -14.82 17 -7 17 C-9.24167007 10.39393839 -9.24167007 10.39393839 -12.1875 8.0625 C-18.32254506 5.74481631 -23.42557722 5.88740984 -28 11 Z " fill="#00649C" transform="translate(449,548)"/>
<path d="M0 0 C3.36855131 1.87582073 5.65375855 3.94496253 7.625 7.3125 C8.83866009 11.72695538 8.75343301 16.13406167 8.72265625 20.67578125 C8.7212413 21.46776413 8.71982635 22.25974701 8.71836853 23.07572937 C8.71279457 25.59219219 8.70024693 28.10856431 8.6875 30.625 C8.68248163 32.33658725 8.67791931 34.04817591 8.67382812 35.75976562 C8.66283368 39.94404508 8.64558707 44.12825719 8.625 48.3125 C9.285 48.3125 9.945 48.3125 10.625 48.3125 C10.625 49.6325 10.625 50.9525 10.625 52.3125 C5.345 52.3125 0.065 52.3125 -5.375 52.3125 C-5.375 50.9925 -5.375 49.6725 -5.375 48.3125 C-5.90609375 48.66183594 -6.4371875 49.01117187 -6.984375 49.37109375 C-8.04398438 50.05365234 -8.04398438 50.05365234 -9.125 50.75 C-9.82109375 51.20246094 -10.5171875 51.65492188 -11.234375 52.12109375 C-16.26862775 54.9230045 -21.74776844 54.79406974 -27.375 54.3125 C-32.24259282 52.65935527 -35.95562994 49.91026701 -38.375 45.3125 C-39.91316263 39.67886141 -39.8768521 34.40315195 -37.421875 29.0625 C-34.69409422 24.50262764 -32.15729191 22.80938138 -27.15234375 21.4140625 C-23.5702728 20.64018193 -19.9803513 19.96801842 -16.375 19.3125 C-13.69461259 18.68915409 -11.03849589 18.00500893 -8.375 17.3125 C-7.8215236 15.23696352 -7.375 13.46884036 -7.375 11.3125 C-12.39625926 10.53333908 -16.35203996 10.18233399 -21.375 11.3125 C-22.035 13.2925 -22.695 15.2725 -23.375 17.3125 C-27.995 17.3125 -32.615 17.3125 -37.375 17.3125 C-36.81952304 10.7578719 -36.01324082 6.74245865 -31 2.125 C-22.76524937 -3.56089924 -9.20151629 -3.80062629 0 0 Z M-14.25 29.0625 C-15.50554687 29.38734375 -16.76109375 29.7121875 -18.0546875 30.046875 C-21.4985268 31.35958551 -22.72278584 32.06972147 -24.375 35.3125 C-24.38174926 38.43930099 -24.38174926 38.43930099 -23.375 41.3125 C-19.98544168 43.57220555 -18.33574157 43.52722064 -14.37890625 42.9296875 C-11.14295008 41.93303823 -9.451005 39.89177894 -7.375 37.3125 C-6.23147084 35.02544169 -6.27165561 33.71985238 -6.3125 31.1875 C-6.333125 29.90875 -6.35375 28.63 -6.375 27.3125 C-8.96849734 27.3125 -11.78175012 28.40631905 -14.25 29.0625 Z " fill="#00649C" transform="translate(136.375,544.6875)"/>
<path d="M0 0 C0.79100098 0.00829834 1.58200195 0.01659668 2.39697266 0.02514648 C8.32838846 0.19609293 14.39693668 0.59927758 19.1875 4.4375 C22.93962837 9.89984778 23.76845146 13.81443217 23.7265625 20.36328125 C23.73835541 21.19208298 23.75014832 22.0208847 23.76229858 22.87480164 C23.79737161 25.50006271 23.80671436 28.12452429 23.8125 30.75 C23.82883761 33.39308967 23.85080767 36.03582517 23.88412476 38.67875671 C23.9037782 40.31799654 23.91308708 41.95739962 23.91104126 43.59675598 C23.77595599 47.98507487 23.77595599 47.98507487 26.1875 51.4375 C26.1875 52.4275 26.1875 53.4175 26.1875 54.4375 C20.9075 54.4375 15.6275 54.4375 10.1875 54.4375 C9.5275 53.1175 8.8675 51.7975 8.1875 50.4375 C7.1046875 51.365625 7.1046875 51.365625 6 52.3125 C0.33625169 56.5917765 -4.84028135 57.2864764 -11.8125 56.4375 C-16.18334489 55.12251077 -19.09504544 53.15495456 -22.3125 49.9375 C-24.95874459 43.7629293 -24.67345624 37.39703709 -22.8125 31 C-16.79875972 23.29489527 -8.80136275 22.37702103 0.359375 21.015625 C3.06243048 20.60740846 5.56041821 20.12960419 8.1875 19.4375 C7.5275 17.4575 6.8675 15.4775 6.1875 13.4375 C-0.068317 12.20126692 -0.068317 12.20126692 -5.8125 14.4375 C-6.4725 16.0875 -7.1325 17.7375 -7.8125 19.4375 C-12.7625 19.4375 -17.7125 19.4375 -22.8125 19.4375 C-21.78059929 12.49562248 -21.05952996 8.2181273 -15.8125 3.4375 C-10.41831505 0.61903836 -6.04578335 -0.08138801 0 0 Z M-0.8125 31.625 C-2.3903125 31.95564453 -2.3903125 31.95564453 -4 32.29296875 C-7.47797079 33.70830964 -8.36541458 35.02091566 -9.8125 38.4375 C-9.00045587 41.61185434 -8.13069425 43.11930575 -5.8125 45.4375 C-1.86477778 45.97582576 -0.07586034 45.58437404 3.4375 43.625 C6.33292239 41.55070337 6.33292239 41.55070337 8.1875 38.4375 C8.42805468 36.38040404 8.42805468 36.38040404 8.3125 34.25 C8.27125 32.991875 8.23 31.73375 8.1875 30.4375 C4.99436604 30.4375 2.30370454 30.93378306 -0.8125 31.625 Z " fill="#00649C" transform="translate(1711.8125,542.5625)"/>
<path d="M0 0 C3.49124821 2.97246835 5.52817222 7.28579069 6.32034302 11.78741455 C6.4653614 14.01985145 6.49919163 16.22392175 6.484375 18.4609375 C6.49616791 19.26612823 6.50796082 20.07131897 6.52011108 20.90090942 C6.55510707 23.44455824 6.56452001 25.98738088 6.5703125 28.53125 C6.5866565 31.0962959 6.60862465 33.66097752 6.64193726 36.2258606 C6.66157576 37.81501833 6.67090119 39.40434408 6.66885376 40.99362183 C6.55079069 45.28795664 6.55079069 45.28795664 8.9453125 48.65625 C8.9453125 49.64625 8.9453125 50.63625 8.9453125 51.65625 C3.6653125 51.65625 -1.6146875 51.65625 -7.0546875 51.65625 C-7.7146875 50.33625 -8.3746875 49.01625 -9.0546875 47.65625 C-9.52519531 48.00558594 -9.99570313 48.35492187 -10.48046875 48.71484375 C-11.10308594 49.16988281 -11.72570313 49.62492188 -12.3671875 50.09375 C-12.98207031 50.54621094 -13.59695312 50.99867188 -14.23046875 51.46484375 C-18.77812057 54.43493755 -23.8301969 54.09294754 -29.0546875 53.65625 C-34.12738662 52.44071644 -37.16363603 49.9928272 -40.0546875 45.65625 C-42.26553298 41.23455905 -41.46505747 35.46930356 -41.0546875 30.65625 C-38.74860004 25.3983706 -35.18377066 22.95848428 -30.0546875 20.65625 C-27.16498325 19.87749523 -24.2676232 19.43458156 -21.3046875 19.03125 C-15.38451187 18.25411431 -15.38451187 18.25411431 -10.0546875 15.65625 C-10.5496875 13.18125 -10.5496875 13.18125 -11.0546875 10.65625 C-15.68725011 9.74790439 -18.9219773 9.13070488 -23.0546875 11.65625 C-23.44785156 12.50316406 -23.84101563 13.35007812 -24.24609375 14.22265625 C-24.84292969 15.02574219 -25.43976562 15.82882812 -26.0546875 16.65625 C-29.41015625 17.14453125 -29.41015625 17.14453125 -33.2421875 16.96875 C-34.51449219 16.92363281 -35.78679688 16.87851562 -37.09765625 16.83203125 C-38.07347656 16.77402344 -39.04929687 16.71601562 -40.0546875 16.65625 C-39.65186979 10.81539326 -38.9419085 7.27889119 -35.0546875 2.65625 C-25.45692533 -4.5910398 -11.02673351 -4.26841297 0 0 Z M-18.0546875 28.90625 C-19.6325 29.25429688 -19.6325 29.25429688 -21.2421875 29.609375 C-24.4193799 30.79199662 -25.46830593 31.69426482 -27.0546875 34.65625 C-27.06143676 37.78305099 -27.06143676 37.78305099 -26.0546875 40.65625 C-22.52038094 43.01245437 -21.21897463 43.14616613 -17.0546875 42.65625 C-13.3968657 40.61631092 -11.38522576 39.15205738 -9.0546875 35.65625 C-8.81413282 33.59915404 -8.81413282 33.59915404 -8.9296875 31.46875 C-8.9709375 30.210625 -9.0121875 28.9525 -9.0546875 27.65625 C-12.2627405 27.65625 -14.93013396 28.18637737 -18.0546875 28.90625 Z " fill="#00649C" transform="translate(2205.0546875,545.34375)"/>
<path d="M0 0 C1.16692383 -0.0309375 1.16692383 -0.0309375 2.35742188 -0.0625 C8.86798705 -0.10593997 14.43922063 0.98162155 19.6875 5.125 C23.41893645 10.00457075 23.61574169 14.79536329 23.65625 20.76171875 C23.6708728 21.57115433 23.68549561 22.3805899 23.70056152 23.21455383 C23.76266497 26.66477065 23.80256927 30.11515925 23.84423828 33.56567383 C23.87788679 36.08954907 23.92299639 38.61303873 23.96875 41.13671875 C23.9740271 41.92004074 23.9793042 42.70336273 23.98474121 43.51042175 C23.90433289 47.84532852 23.90433289 47.84532852 26.3125 51.25 C26.3125 52.24 26.3125 53.23 26.3125 54.25 C21.0325 54.25 15.7525 54.25 10.3125 54.25 C9.6525 52.93 8.9925 51.61 8.3125 50.25 C7.84199219 50.59933594 7.37148438 50.94867187 6.88671875 51.30859375 C6.26410156 51.76363281 5.64148438 52.21867188 5 52.6875 C4.38511719 53.13996094 3.77023437 53.59242188 3.13671875 54.05859375 C-1.40658264 57.02584627 -6.46689871 56.69430649 -11.6875 56.25 C-16.24398818 55.08078794 -19.70823287 52.91679031 -22.6875 49.25 C-24.76799616 43.00851151 -24.7629867 35.70210967 -22.125 29.6875 C-16.72174232 24.28424232 -11.27896502 22.62436173 -3.9375 21.625 C1.98267563 20.84786431 1.98267563 20.84786431 7.3125 18.25 C6.8175 15.775 6.8175 15.775 6.3125 13.25 C1.67993739 12.34165439 -1.5547898 11.72445488 -5.6875 14.25 C-6.08066406 15.09691406 -6.47382813 15.94382812 -6.87890625 16.81640625 C-7.47574219 17.61949219 -8.07257813 18.42257812 -8.6875 19.25 C-12.04296875 19.73828125 -12.04296875 19.73828125 -15.875 19.5625 C-17.14730469 19.51738281 -18.41960937 19.47226562 -19.73046875 19.42578125 C-20.70628906 19.36777344 -21.68210937 19.30976562 -22.6875 19.25 C-22.28468229 13.40914326 -21.574721 9.87264119 -17.6875 5.25 C-11.75461453 0.77006608 -7.27275266 0.04703478 0 0 Z M0.4375 31 C-0.81804687 31.32484375 -2.07359375 31.6496875 -3.3671875 31.984375 C-6.8110268 33.29708551 -8.03528584 34.00722147 -9.6875 37.25 C-9.69424926 40.37680099 -9.69424926 40.37680099 -8.6875 43.25 C-5.15319344 45.60620437 -3.85178713 45.73991613 0.3125 45.25 C3.9703218 43.21006092 5.98196174 41.74580738 8.3125 38.25 C8.55357326 35.96351152 8.55357326 35.96351152 8.4375 33.5625 C8.41042969 32.35013672 8.41042969 32.35013672 8.3828125 31.11328125 C8.35960937 30.49839844 8.33640625 29.88351562 8.3125 29.25 C5.71900266 29.25 2.90574988 30.34381905 0.4375 31 Z " fill="#00649C" transform="translate(341.6875,542.75)"/>
<path d="M0 0 C6.54406265 4.40152256 10.72771205 9.71445477 12.58203125 17.41796875 C14.19115361 27.35843494 13.03335519 36.94180475 7.3125 45.375 C3.34456104 50.27307926 -1.86913858 52.80509623 -8 54 C-16.49693151 54.59148653 -24.85582601 54.77375786 -31.96484375 49.55859375 C-38.43225471 43.66545606 -40.99301731 37.09933119 -41.875 28.5 C-42.32878263 18.49351119 -40.31613188 11.84779387 -34 4 C-25.45177074 -4.77926248 -10.54876135 -5.44826136 0 0 Z M-24 14 C-26.85666017 19.77367231 -26.51500456 25.70109813 -26 32 C-24.53852032 36.23829106 -22.97331002 38.84306028 -19 41 C-15.22300256 42.14952096 -13.51925416 42.20362908 -9.8125 40.75 C-5.63379958 38.14991974 -4.41948889 37.19554335 -2.75 32.4375 C-1.36827642 26.07922962 -1.79597039 20.24752194 -4.875 14.5 C-7.05410019 11.93635272 -8.67903879 10.21273907 -12.0859375 9.6640625 C-17.32351928 9.57468397 -20.32422144 9.87867252 -24 14 Z " fill="#00649C" transform="translate(1368,545)"/>
<path d="M0 0 C7.21611041 7.8873765 9.16736403 16.64536268 8.96484375 27.06640625 C8.36657791 35.41684913 4.95587351 42.35351467 -1.3125 47.9375 C-9.25552089 52.80057401 -19.13970972 53.2779261 -28.13671875 51.32421875 C-35.31437452 48.82907654 -39.41654759 44.52965311 -43.40625 38.203125 C-46.88319738 30.92729067 -46.41790933 20.57308752 -44.5859375 12.890625 C-42.08705955 6.1863183 -38.76421871 1.03276872 -32.3125 -2.375 C-21.76340914 -7.10052211 -9.79286658 -6.09744523 0 0 Z M-26.3125 9.9375 C-30.22132622 14.75114711 -30.95131343 20.21344611 -30.69140625 26.25 C-30.10648361 30.39872967 -29.00538432 33.69019832 -26.3125 36.9375 C-22.30310304 39.50956598 -20.34062204 40.09433218 -15.625 39.375 C-11.14158974 37.42936913 -9.12298991 35.6800533 -7.0625 31.25 C-5.46405308 24.19019276 -5.65626156 18.36743657 -9.3125 11.9375 C-11.49764412 9.50262512 -12.99611774 8.14465976 -16.2734375 7.62890625 C-20.15459379 7.50626748 -23.0417517 7.88063767 -26.3125 9.9375 Z " fill="#00649C" transform="translate(2348.3125,547.0625)"/>
<path d="M0 0 C7.43978617 7.86491681 9.68873977 16.24900955 9.50390625 26.95703125 C8.76166089 34.82849743 5.99809059 41.89808604 0.1875 47.3125 C-8.41850338 52.63757195 -17.69434841 53.85607707 -27.640625 51.69921875 C-35.51377428 48.95810696 -39.73786924 43.99329651 -43.75 36.875 C-46.23675763 29.04171346 -46.34646171 17.86681695 -43.1875 10.1875 C-42.05859375 8.16796875 -42.05859375 8.16796875 -40.8125 6.3125 C-40.21115234 5.34763672 -40.21115234 5.34763672 -39.59765625 4.36328125 C-30.73556038 -7.88952956 -11.88175519 -7.12905311 0 0 Z M-28.625 13.6875 C-30.79060644 20.29829859 -30.83247389 27.35457572 -28.5625 33.9375 C-26.00141973 37.41325179 -24.13480763 38.9011154 -20 40.1875 C-15.82656595 40.35116408 -13.43223601 39.36140717 -9.8125 37.3125 C-5.82893674 32.13386776 -5.17281456 26.73261571 -5.8125 20.3125 C-6.78107738 16.10262036 -8.14593455 13.07428908 -11 9.8125 C-17.61173234 6.28624275 -24.06456893 7.71176273 -28.625 13.6875 Z " fill="#00649C" transform="translate(2056.8125,546.6875)"/>
<path d="M0 0 C7.43978617 7.86491681 9.68873977 16.24900955 9.50390625 26.95703125 C8.76166089 34.82849743 5.99809059 41.89808604 0.1875 47.3125 C-8.41850338 52.63757195 -17.69434841 53.85607707 -27.640625 51.69921875 C-35.51377428 48.95810696 -39.73786924 43.99329651 -43.75 36.875 C-46.23675763 29.04171346 -46.34646171 17.86681695 -43.1875 10.1875 C-42.05859375 8.16796875 -42.05859375 8.16796875 -40.8125 6.3125 C-40.21115234 5.34763672 -40.21115234 5.34763672 -39.59765625 4.36328125 C-30.73556038 -7.88952956 -11.88175519 -7.12905311 0 0 Z M-28.625 13.6875 C-30.79060644 20.29829859 -30.83247389 27.35457572 -28.5625 33.9375 C-26.00141973 37.41325179 -24.13480763 38.9011154 -20 40.1875 C-15.82656595 40.35116408 -13.43223601 39.36140717 -9.8125 37.3125 C-5.82893674 32.13386776 -5.17281456 26.73261571 -5.8125 20.3125 C-6.78107738 16.10262036 -8.14593455 13.07428908 -11 9.8125 C-17.61173234 6.28624275 -24.06456893 7.71176273 -28.625 13.6875 Z " fill="#00649C" transform="translate(879.8125,546.6875)"/>
<path d="M0 0 C4.95 0 9.9 0 15 0 C15.06058594 2.30097656 15.12117188 4.60195313 15.18359375 6.97265625 C15.24553712 9.21999903 15.30886071 11.46729902 15.37231445 13.71459961 C15.41542245 15.26729464 15.45711268 16.82002974 15.49731445 18.37280273 C15.5556069 20.61454303 15.61912578 22.85608604 15.68359375 25.09765625 C15.70030624 25.78336197 15.71701874 26.46906769 15.73423767 27.17555237 C15.8658112 31.53043364 16.31414284 35.70668063 17 40 C23.03146302 41.10708386 23.03146302 41.10708386 28.9375 39.9375 C32.38259681 36.70119694 32.91269545 32.99083311 33.31884766 28.38134766 C33.35026855 27.07214355 33.38168945 25.76293945 33.4140625 24.4140625 C33.43342865 23.71227875 33.4527948 23.010495 33.4727478 22.28744507 C33.53207569 20.06675001 33.57873917 17.84600177 33.625 15.625 C33.66322302 14.11065566 33.70227722 12.59633206 33.7421875 11.08203125 C33.83928884 7.38813457 33.91922413 3.69443334 34 0 C38.95 0 43.9 0 49 0 C49 17.49 49 34.98 49 53 C44.05 53 39.1 53 34 53 C33.505 51.02 33.505 51.02 33 49 C32.21625 49.639375 31.4325 50.27875 30.625 50.9375 C26.59382882 54.10484879 24.36289055 54.18527987 19.25 54.25 C18.03828125 54.27578125 16.8265625 54.3015625 15.578125 54.328125 C10.64712448 53.87593718 7.38000062 52.26500057 3.75 48.9375 C-1.7308988 39.73741987 -0.23234204 27.70211418 -0.125 17.375 C-0.11494957 15.68620323 -0.10582737 13.99740066 -0.09765625 12.30859375 C-0.07580739 8.20558406 -0.04139154 4.10285718 0 0 Z " fill="#00649C" transform="translate(1084,544)"/>
<path d="M0 0 C4.52017389 2.631146 6.42268546 5.18219618 8.40625 10.09375 C8.80395168 13.43035065 8.75634956 16.72976707 8.69921875 20.0859375 C8.69497391 21.03187775 8.69072906 21.97781799 8.68635559 22.9524231 C8.66963306 25.95816133 8.63199263 28.9632162 8.59375 31.96875 C8.57869486 34.01301111 8.56500791 36.05728279 8.55273438 38.1015625 C8.51975055 43.09921954 8.46801253 48.09636911 8.40625 53.09375 C3.45625 53.09375 -1.49375 53.09375 -6.59375 53.09375 C-6.6030957 51.99385742 -6.61244141 50.89396484 -6.62207031 49.76074219 C-6.66197937 45.67520834 -6.72774004 41.59042681 -6.80126953 37.50537109 C-6.82947397 35.73821689 -6.85069118 33.97093666 -6.86474609 32.20361328 C-6.88618358 29.66112778 -6.93283503 27.12015662 -6.984375 24.578125 C-6.98560364 23.78944031 -6.98683228 23.00075562 -6.98809814 22.18817139 C-7.08311391 18.62017894 -7.29933075 16.49319691 -9.44433594 13.58300781 C-12.33168136 11.5824618 -14.14422427 11.7344244 -17.59375 12.09375 C-18.33625 12.135 -19.07875 12.17625 -19.84375 12.21875 C-21.87982867 13.00030028 -21.87982867 13.00030028 -22.67724609 15.64697266 C-23.70406047 19.50860436 -23.9435214 23.15025282 -24.0078125 27.1171875 C-24.02717865 27.86336334 -24.0465448 28.60953918 -24.0664978 29.37832642 C-24.12587065 31.74168777 -24.1725078 34.10509897 -24.21875 36.46875 C-24.25696884 38.07944732 -24.2960228 39.69012506 -24.3359375 41.30078125 C-24.43309629 45.23166397 -24.51299712 49.16235967 -24.59375 53.09375 C-29.54375 53.09375 -34.49375 53.09375 -39.59375 53.09375 C-39.59375 35.60375 -39.59375 18.11375 -39.59375 0.09375 C-34.97375 0.09375 -30.35375 0.09375 -25.59375 0.09375 C-25.26375 1.74375 -24.93375 3.39375 -24.59375 5.09375 C-23.830625 4.289375 -23.0675 3.485 -22.28125 2.65625 C-16.7594703 -2.60870274 -6.99697313 -2.44472555 0 0 Z " fill="#00649C" transform="translate(1306.59375,543.90625)"/>
<path d="M0 0 C4.95 0 9.9 0 15 0 C15.0093457 1.13542236 15.01869141 2.27084473 15.02832031 3.44067383 C15.0681757 7.65103473 15.13392129 11.86066145 15.20751953 16.07055664 C15.23575514 17.89305189 15.2569568 19.71567019 15.27099609 21.53833008 C15.2923904 24.15770583 15.33901979 26.77559815 15.390625 29.39453125 C15.39185364 30.21025101 15.39308228 31.02597076 15.39434814 31.8664093 C15.47282037 36.36253872 15.47282037 36.36253872 17.85449219 40.01049805 C20.8320901 41.38375753 22.75294679 41.46386474 26 41 C29.55724267 38.82527838 29.55724267 38.82527838 31.61694336 35.33496094 C32.15922921 32.02940207 32.23676046 28.73224478 32.31640625 25.390625 C32.33718735 24.66381531 32.35796844 23.93700562 32.37937927 23.18817139 C32.44455512 20.87554009 32.5036104 18.56279907 32.5625 16.25 C32.60571566 14.67837425 32.64933092 13.10675944 32.69335938 11.53515625 C32.80095277 7.6902148 32.90026285 3.84518535 33 0 C37.95 0 42.9 0 48 0 C48 17.49 48 34.98 48 53 C43.38 53 38.76 53 34 53 C33.67 51.35 33.34 49.7 33 48 C32.13375 48.928125 32.13375 48.928125 31.25 49.875 C26.1176755 54.72219536 21.27499415 54.43271017 14.42578125 54.3046875 C9.62864585 53.87803236 7.64359966 53.16834753 4 50 C-0.01192796 44.22579125 -0.55225229 38.90033119 -0.390625 32.03125 C-0.38496521 31.11033569 -0.37930542 30.18942139 -0.37347412 29.24060059 C-0.35125236 26.32651693 -0.30108383 23.41370603 -0.25 20.5 C-0.2299166 18.51303871 -0.21166906 16.52605796 -0.1953125 14.5390625 C-0.1514343 9.69222501 -0.08250689 4.84632758 0 0 Z " fill="#00649C" transform="translate(1917,544)"/>
<path d="M0 0 C3.71066057 1.98756765 5.85126455 4.4871851 7.55859375 8.28125 C8.39363609 11.08733251 8.68113961 13.57639147 8.67211914 16.49902344 C8.67204361 17.31957214 8.67196808 18.14012085 8.67189026 18.98553467 C8.66672897 19.86171448 8.66156769 20.73789429 8.65625 21.640625 C8.65483505 22.54500305 8.6534201 23.4493811 8.65196228 24.38116455 C8.64637286 27.26456027 8.63382228 30.14787782 8.62109375 33.03125 C8.61607738 34.98828013 8.61151471 36.94531147 8.60742188 38.90234375 C8.59640688 43.69534253 8.57914949 48.48828302 8.55859375 53.28125 C3.60859375 53.28125 -1.34140625 53.28125 -6.44140625 53.28125 C-6.47113525 51.67685059 -6.47113525 51.67685059 -6.50146484 50.04003906 C-6.57761605 46.06649488 -6.66631867 42.09331234 -6.75878906 38.12011719 C-6.79703952 36.40143989 -6.83189928 34.68268362 -6.86328125 32.96386719 C-6.90901753 30.4912496 -6.96699709 28.01917387 -7.02734375 25.546875 C-7.03889496 24.78006409 -7.05044617 24.01325317 -7.06234741 23.22320557 C-7.19602452 17.93915452 -7.19602452 17.93915452 -9.44140625 13.28125 C-11.86293363 12.07048631 -13.19563712 12.20357286 -15.87890625 12.40625 C-16.66136719 12.45007813 -17.44382812 12.49390625 -18.25 12.5390625 C-20.61220306 13.11700303 -20.61220306 13.11700303 -22.04638672 15.31860352 C-23.80113948 19.04522667 -23.91823392 22.38636239 -23.953125 26.42578125 C-23.9710762 27.19556808 -23.9890274 27.96535492 -24.00752258 28.75846863 C-24.06146012 31.20350764 -24.09546698 33.64835332 -24.12890625 36.09375 C-24.16209407 37.75718826 -24.19658509 39.42060107 -24.23242188 41.08398438 C-24.31961816 45.14976482 -24.37982371 49.21467903 -24.44140625 53.28125 C-29.39140625 53.28125 -34.34140625 53.28125 -39.44140625 53.28125 C-39.44140625 35.79125 -39.44140625 18.30125 -39.44140625 0.28125 C-34.82140625 0.28125 -30.20140625 0.28125 -25.44140625 0.28125 C-25.11140625 1.60125 -24.78140625 2.92125 -24.44140625 4.28125 C-23.65765625 3.641875 -22.87390625 3.0025 -22.06640625 2.34375 C-16.23647947 -2.23690676 -7.01654431 -2.06567064 0 0 Z " fill="#00649C" transform="translate(1581.44140625,543.71875)"/>
<path d="M0 0 C1.21171875 -0.02578125 2.4234375 -0.0515625 3.671875 -0.078125 C8.68334818 0.38144241 11.95412033 1.95412033 15.5 5.5 C19.34852983 11.54768973 19.53323189 17.50673145 19.4453125 24.46484375 C19.4424826 25.32058487 19.43965271 26.17632599 19.43673706 27.05799866 C19.42561935 29.76797991 19.40053082 32.47762009 19.375 35.1875 C19.36495931 37.03450041 19.35583537 38.88150604 19.34765625 40.72851562 C19.32570763 45.23580677 19.29123654 49.74284573 19.25 54.25 C14.3 54.25 9.35 54.25 4.25 54.25 C4.18941406 51.94902344 4.12882812 49.64804687 4.06640625 47.27734375 C4.00446288 45.03000097 3.94113929 42.78270098 3.87768555 40.53540039 C3.83457755 38.98270536 3.79288732 37.42997026 3.75268555 35.87719727 C3.6943931 33.63545697 3.63087422 31.39391396 3.56640625 29.15234375 C3.54969376 28.46663803 3.53298126 27.78093231 3.51576233 27.07444763 C3.3841888 22.71956636 2.93585716 18.54331937 2.25 14.25 C-1.38782632 13.03739123 -3.92735999 12.85455448 -7.75 13.25 C-11.22348849 15.9683823 -13.02140714 17.93820124 -13.75 22.25 C-13.89952957 24.7199938 -14.00559002 27.16861673 -14.06640625 29.640625 C-14.08718735 30.34523865 -14.10796844 31.04985229 -14.12937927 31.77581787 C-14.19453837 34.01711681 -14.25360248 36.25852864 -14.3125 38.5 C-14.35571726 40.02344897 -14.39933257 41.54688671 -14.44335938 43.0703125 C-14.55093115 46.79676119 -14.6502535 50.5233008 -14.75 54.25 C-19.37 54.25 -23.99 54.25 -28.75 54.25 C-28.75 36.76 -28.75 19.27 -28.75 1.25 C-24.13 1.25 -19.51 1.25 -14.75 1.25 C-14.42 2.57 -14.09 3.89 -13.75 5.25 C-12.96625 4.610625 -12.1825 3.97125 -11.375 3.3125 C-7.34382882 0.14515121 -5.11289055 0.06472013 0 0 Z " fill="#00649C" transform="translate(2397.75,542.75)"/>
<path d="M0 0 C4.32856491 2.37319003 6.65497025 5.35069348 8.9375 9.6875 C9.6875 12.3125 9.6875 12.3125 9.6875 19.3125 C4.7375 19.3125 -0.2125 19.3125 -5.3125 19.3125 C-5.8075 17.6109375 -5.8075 17.6109375 -6.3125 15.875 C-7.30671495 13.54569641 -7.78862699 12.55289194 -10.1171875 11.484375 C-13.75718342 10.85252665 -15.82255441 11.0781782 -19.1875 12.6875 C-23.24844547 17.70396206 -23.56613081 23.27403948 -23.125 29.5625 C-22.59643978 33.43059982 -22.00335941 36.34327582 -19.3125 39.3125 C-16.08695478 40.92527261 -14.19158709 41.4556072 -10.625 40.875 C-7.24224298 38.58935337 -6.65483255 36.1275504 -5.3125 32.3125 C-0.3625 32.3125 4.5875 32.3125 9.6875 32.3125 C9.16029321 39.95699846 7.03984382 44.31665854 1.3125 49.5625 C-5.26844505 54.85496528 -12.11826205 55.00254109 -20.3125 54.3125 C-25.99231792 53.10080551 -30.27948149 50.52883754 -34.3125 46.3125 C-39.85918782 36.56592396 -40.89928414 25.36330118 -38.1328125 14.51171875 C-35.61993241 7.77480689 -31.6379888 2.68609403 -25.3125 -0.6875 C-17.9936783 -3.12710723 -7.17725935 -2.98150807 0 0 Z " fill="#00649C" transform="translate(1670.3125,544.6875)"/>
<path d="M0 0 C4.76258732 3.04335737 7.62013423 6.63537073 9.5625 12 C10.25 15.375 10.25 15.375 10.25 19.375 C5.3 19.375 0.35 19.375 -4.75 19.375 C-5.74 17.395 -6.73 15.415 -7.75 13.375 C-11.26824511 11.02950326 -12.60775694 10.79508597 -16.75 11.375 C-19.85164769 13.92524365 -21.47566416 15.55199247 -22.75 19.375 C-22.89648082 21.64263574 -22.9709626 23.91532366 -23 26.1875 C-23.02578125 27.39019531 -23.0515625 28.59289062 -23.078125 29.83203125 C-22.71705862 33.73068849 -21.85846933 36.0908404 -19.75 39.375 C-15.4166167 41.22070029 -12.27546677 41.74635357 -7.75 40.375 C-7.09 37.735 -6.43 35.095 -5.75 32.375 C-0.8 32.375 4.15 32.375 9.25 32.375 C9.02011187 39.73142022 7.54653192 44.14940377 2.25 49.375 C-4.88235956 54.69352674 -12.13024624 54.98358338 -20.75 54.375 C-26.33923765 53.21324357 -30.04582927 50.71417143 -33.75 46.375 C-34.5853125 45.4159375 -34.5853125 45.4159375 -35.4375 44.4375 C-40.76381877 36.0675705 -39.94004553 23.5813134 -38.1328125 14.15625 C-35.73037403 7.26784235 -30.93478309 2.5551842 -24.515625 -0.7890625 C-17.45348837 -2.92366312 -6.83066419 -3.14656316 0 0 Z " fill="#00649C" transform="translate(816.75,544.625)"/>
<path d="M0 0 C4.76258732 3.04335737 7.62013423 6.63537073 9.5625 12 C10.25 15.375 10.25 15.375 10.25 19.375 C5.3 19.375 0.35 19.375 -4.75 19.375 C-5.74 17.395 -6.73 15.415 -7.75 13.375 C-11.38251872 10.95332085 -12.75339617 11.19226657 -16.87890625 11.828125 C-18.94785155 12.27512545 -18.94785155 12.27512545 -20.6875 14.25 C-22.72673938 18.32847875 -22.94227557 21.67056372 -23 26.1875 C-23.02578125 27.39019531 -23.0515625 28.59289062 -23.078125 29.83203125 C-22.71705862 33.73068849 -21.85846933 36.0908404 -19.75 39.375 C-15.4166167 41.22070029 -12.27546677 41.74635357 -7.75 40.375 C-7.440625 39.240625 -7.13125 38.10625 -6.8125 36.9375 C-5.75 33.375 -5.75 33.375 -4.75 32.375 C-2.39686445 32.30228259 -0.04166332 32.29129132 2.3125 32.3125 C3.60285156 32.32152344 4.89320312 32.33054687 6.22265625 32.33984375 C7.22167969 32.35144531 8.22070312 32.36304688 9.25 32.375 C9.22095051 38.64969008 8.02978507 42.78557187 4 47.6484375 C-1.31153292 52.88883382 -7.21124673 54.51170332 -14.5 54.625 C-21.32700833 54.55016069 -26.08530377 53.55520601 -31.5 49.125 C-39.50912133 39.33607393 -39.6669046 29.53121078 -38.75 17.375 C-37.42554884 10.39843245 -34.25940122 6.22571751 -28.84765625 1.75 C-21.34300665 -3.1692489 -8.28699294 -3.81742477 0 0 Z " fill="#00649C" transform="translate(1520.75,544.625)"/>
<path d="M0 0 C14.19 0 28.38 0 43 0 C43 13 43 13 40.69140625 16.7265625 C39.67898278 17.72467086 38.63435685 18.69100617 37.5625 19.625 C36.4581663 20.6950641 35.35663717 21.76802957 34.2578125 22.84375 C33.70770508 23.36582031 33.15759766 23.88789062 32.59082031 24.42578125 C29.36962383 27.61336181 26.66052909 31.21751097 23.83984375 34.7578125 C22 37 22 37 19 40 C27.25 40.33 35.5 40.66 44 41 C44 44.96 44 48.92 44 53 C29.15 53 14.3 53 -1 53 C-1 39.52064632 -1 39.52064632 2.6875 35.6875 C3.49703125 34.80449219 4.3065625 33.92148437 5.140625 33.01171875 C5.59244141 32.54040527 6.04425781 32.0690918 6.50976562 31.58349609 C8.81369169 29.13538593 10.99171764 26.58164762 13.18481445 24.03442383 C14.33665474 22.69742911 15.49390261 21.3650706 16.65698242 20.0378418 C17.19170166 19.427229 17.7264209 18.81661621 18.27734375 18.1875 C18.75421631 17.64480469 19.23108887 17.10210938 19.72241211 16.54296875 C21.19804601 14.81494601 21.19804601 14.81494601 23 12 C15.41 12 7.82 12 0 12 C0 8.04 0 4.08 0 0 Z " fill="#00649C" transform="translate(2221,544)"/>
<path d="M0 0 C5.37686615 3.1206029 8.69941245 8.78573736 10.625 14.5625 C11.30851607 21.9628759 10.79321606 28.59636286 6.04296875 34.54296875 C1.20999786 39.6497027 -2.98707105 41.83589908 -10.125 42.0625 C-16.62382037 41.95045137 -20.65889629 39.95886787 -25.375 35.5625 C-30.53771711 29.71142061 -30.85353287 23.43725449 -30.77734375 15.89453125 C-30.03459674 9.74343224 -27.01146261 6.05249247 -22.6171875 1.90234375 C-16.10166431 -2.99111404 -7.40566426 -3.0644128 0 0 Z " fill="#F8FAFC" transform="translate(78.375,102.4375)"/>
<path d="M0 0 C4.95 0 9.9 0 15 0 C15 4.62 15 9.24 15 14 C17.97 14 20.94 14 24 14 C24 17.63 24 21.26 24 25 C21.03 25 18.06 25 15 25 C15.33 34.9 15.66 44.8 16 55 C18.64 55.33 21.28 55.66 24 56 C24 59.96 24 63.92 24 68 C21.62429457 68.0816082 19.25144159 68.14077222 16.875 68.1875 C16.20984375 68.21263672 15.5446875 68.23777344 14.859375 68.26367188 C10.12196842 68.33333962 7.02647249 67.46725985 3 65 C-0.0466982 61.9533018 0.02246639 59.70752225 -0.11352539 55.42480469 C-0.11336802 54.0071516 -0.10777532 52.58949198 -0.09765625 51.171875 C-0.0962413 50.42286926 -0.09482635 49.67386353 -0.09336853 48.90216064 C-0.08778659 46.51806588 -0.07523745 44.13406622 -0.0625 41.75 C-0.05748266 40.13020969 -0.05292016 38.51041791 -0.04882812 36.890625 C-0.03782308 32.92704688 -0.02057091 28.96353955 0 25 C-2.31 25 -4.62 25 -7 25 C-7 21.37 -7 17.74 -7 14 C-4.69 14 -2.38 14 0 14 C0 9.38 0 4.76 0 0 Z " fill="#00649C" transform="translate(1981,530)"/>
<path d="M0 0 C4.95 0 9.9 0 15 0 C15 4.62 15 9.24 15 14 C17.64 14 20.28 14 23 14 C23 17.63 23 21.26 23 25 C20.36 25 17.72 25 15 25 C15 35.23 15 45.46 15 56 C17.64 56 20.28 56 23 56 C23 59.96 23 63.92 23 68 C7.61938623 68.57597305 7.61938623 68.57597305 2 65 C-0.69494428 61.29856496 -0.2542678 57.11386198 -0.1953125 52.734375 C-0.19106766 51.54427826 -0.19106766 51.54427826 -0.18673706 50.33013916 C-0.17556779 47.80327083 -0.15046944 45.27676068 -0.125 42.75 C-0.11496598 41.0338593 -0.10584087 39.31771302 -0.09765625 37.6015625 C-0.07563914 33.40090426 -0.04113187 29.2005128 0 25 C-2.31 25 -4.62 25 -7 25 C-7 21.37 -7 17.74 -7 14 C-4.69 14 -2.38 14 0 14 C0 9.38 0 4.76 0 0 Z " fill="#00649C" transform="translate(1394,530)"/>
<path d="M0 0 C4.95 0 9.9 0 15 0 C15 4.62 15 9.24 15 14 C17.64 14 20.28 14 23 14 C23 17.63 23 21.26 23 25 C20.36 25 17.72 25 15 25 C15 35.23 15 45.46 15 56 C17.64 56 20.28 56 23 56 C23 59.96 23 63.92 23 68 C7.61938623 68.57597305 7.61938623 68.57597305 2 65 C-0.69494428 61.29856496 -0.2542678 57.11386198 -0.1953125 52.734375 C-0.19106766 51.54427826 -0.19106766 51.54427826 -0.18673706 50.33013916 C-0.17556779 47.80327083 -0.15046944 45.27676068 -0.125 42.75 C-0.11496598 41.0338593 -0.10584087 39.31771302 -0.09765625 37.6015625 C-0.07563914 33.40090426 -0.04113187 29.2005128 0 25 C-2.31 25 -4.62 25 -7 25 C-7 21.37 -7 17.74 -7 14 C-4.69 14 -2.38 14 0 14 C0 9.38 0 4.76 0 0 Z " fill="#00649C" transform="translate(160,530)"/>
<path d="M0 0 C4.95 0 9.9 0 15 0 C15 4.62 15 9.24 15 14 C17.64 14 20.28 14 23 14 C23 17.63 23 21.26 23 25 C20.36 25 17.72 25 15 25 C15.33 34.9 15.66 44.8 16 55 C19.465 55.495 19.465 55.495 23 56 C23 59.96 23 63.92 23 68 C20.79229195 68.08165496 18.58369575 68.13948488 16.375 68.1875 C14.53035156 68.23970703 14.53035156 68.23970703 12.6484375 68.29296875 C8.62040196 67.96951836 6.36240639 67.22072972 3 65 C-0.29203646 60.80845484 -0.40037565 56.98707334 -0.29296875 51.85546875 C-0.28872391 51.08568192 -0.28447906 50.31589508 -0.28010559 49.52278137 C-0.26338597 47.07732354 -0.2257477 44.63270643 -0.1875 42.1875 C-0.17244441 40.52410049 -0.15875754 38.86068799 -0.14648438 37.19726562 C-0.11350465 33.13118918 -0.06177006 29.06573687 0 25 C-2.31 25 -4.62 25 -7 25 C-7 21.37 -7 17.74 -7 14 C-4.69 14 -2.38 14 0 14 C0 9.38 0 4.76 0 0 Z " fill="#00649C" transform="translate(641,530)"/>
<path d="M0 0 C4.62 0 9.24 0 14 0 C14 4.62 14 9.24 14 14 C16.97 14 19.94 14 23 14 C23 17.63 23 21.26 23 25 C20.03 25 17.06 25 14 25 C14.495 40.345 14.495 40.345 15 56 C17.64 56 20.28 56 23 56 C23 59.96 23 63.92 23 68 C20.62429457 68.0816082 18.25144159 68.14077222 15.875 68.1875 C15.20984375 68.21263672 14.5446875 68.23777344 13.859375 68.26367188 C9.12985758 68.3332236 5.98714654 67.53781286 2 65 C-0.55781522 61.16327717 -0.25306456 58.05464013 -0.1953125 53.61328125 C-0.19106766 52.38776802 -0.19106766 52.38776802 -0.18673706 51.13749695 C-0.17554541 48.52901541 -0.1504429 45.9208777 -0.125 43.3125 C-0.11496888 41.54362475 -0.10584326 39.77474412 -0.09765625 38.00585938 C-0.07560942 33.67044051 -0.0410867 29.33527855 0 25 C-2.64 25 -5.28 25 -8 25 C-8 21.37 -8 17.74 -8 14 C-5.36 14 -2.72 14 0 14 C0 9.38 0 4.76 0 0 Z " fill="#00649C" transform="translate(677,530)"/>
<path d="M0 0 C4.57211069 -0.06915798 9.14238114 -0.12880076 13.71459961 -0.16479492 C15.2673968 -0.17981105 16.82015209 -0.20023028 18.37280273 -0.22631836 C20.61452624 -0.26302073 22.85568539 -0.27979787 25.09765625 -0.29296875 C25.78336197 -0.30845261 26.46906769 -0.32393646 27.17555237 -0.33988953 C33.63101051 -0.34210531 38.05479221 1.30311661 42.9375 5.5625 C45.55804992 9.03062053 45.58862826 12.362839 45.359375 16.59765625 C44.70842261 20.94913147 43.24784855 23.86913725 40 26.8125 C35.77839747 29.3190765 31.79822925 29.13032254 27.05078125 29.09765625 C26.27816452 29.0962413 25.50554779 29.09482635 24.70951843 29.09336853 C22.24380611 29.08777466 19.77818485 29.07522333 17.3125 29.0625 C15.63997527 29.05748421 13.96744912 29.05292144 12.29492188 29.04882812 C8.19655134 29.03865847 4.09837752 29.01908194 0 29 C0 19.43 0 9.86 0 0 Z " fill="#00649C" transform="translate(1306,208)"/>
<path d="M0 0 C5.28 0 10.56 0 16 0 C16 23.76 16 47.52 16 72 C10.72 72 5.44 72 0 72 C0 48.24 0 24.48 0 0 Z " fill="#00649C" transform="translate(995,525)"/>
<path d="M0 0 C4.95 0 9.9 0 15 0 C15 23.43 15 46.86 15 71 C10.05 71 5.1 71 0 71 C0 47.57 0 24.14 0 0 Z " fill="#00649C" transform="translate(1055,526)"/>
<path d="M0 0 C4.95 0 9.9 0 15 0 C15 23.43 15 46.86 15 71 C10.05 71 5.1 71 0 71 C0 47.57 0 24.14 0 0 Z " fill="#00649C" transform="translate(1025,526)"/>
<path d="M0 0 C0 4.95 0 9.9 0 15 C-3.7109375 15.24414062 -3.7109375 15.24414062 -7.421875 15.48828125 C-10.3812568 16.0756737 -11.82177564 16.93461159 -14 19 C-15.15839043 22.47517129 -15.22801218 25.6727002 -15.31640625 29.29296875 C-15.33718735 29.99899734 -15.35796844 30.70502594 -15.37937927 31.43244934 C-15.44467491 33.68403551 -15.50366647 35.93573662 -15.5625 38.1875 C-15.60570425 39.7155066 -15.64931916 41.24350164 -15.69335938 42.77148438 C-15.8011075 46.51420689 -15.90032855 50.25701879 -16 54 C-20.95 54 -25.9 54 -31 54 C-31 36.51 -31 19.02 -31 1 C-26.38 1 -21.76 1 -17 1 C-16.67 2.65 -16.34 4.3 -16 6 C-15.59910156 5.566875 -15.19820312 5.13375 -14.78515625 4.6875 C-9.84531702 -0.15152618 -6.83680608 -0.63108979 0 0 Z " fill="#00649C" transform="translate(741,543)"/>
<path d="M0 0 C4.62 0 9.24 0 14 0 C14 23.43 14 46.86 14 71 C9.38 71 4.76 71 0 71 C0 47.57 0 24.14 0 0 Z " fill="#00649C" transform="translate(553,526)"/>
<path d="M0 0 C4.62 0 9.24 0 14 0 C14 23.43 14 46.86 14 71 C9.38 71 4.76 71 0 71 C0 47.57 0 24.14 0 0 Z " fill="#00649C" transform="translate(379,526)"/>
<path d="M0 0 C0 4.95 0 9.9 0 15 C-1.5675 15.144375 -3.135 15.28875 -4.75 15.4375 C-7.93976152 15.73129382 -10.90398498 16.1914682 -14 17 C-16.38247914 24.59294166 -16.43900227 32.08734663 -16.625 40 C-16.66325652 41.36069998 -16.70231248 42.72137774 -16.7421875 44.08203125 C-16.83596839 47.38780764 -16.9190513 50.6938845 -17 54 C-21.62 54 -26.24 54 -31 54 C-31 36.51 -31 19.02 -31 1 C-26.71 1 -22.42 1 -18 1 C-17.67 2.98 -17.34 4.96 -17 7 C-16.13375 5.824375 -16.13375 5.824375 -15.25 4.625 C-10.68901762 -0.69614611 -6.63874606 -0.19525724 0 0 Z " fill="#00649C" transform="translate(282,543)"/>
<path d="M0 0 C0.95652606 3.63631731 1.17577468 6.39794452 0 10 C-3.89730582 13.94127106 -9.08161897 16.5585015 -14 19 C-14.66 19 -15.32 19 -16 19 C-16 19.66 -16 20.32 -16 21 C-10.72 21 -5.44 21 0 21 C0 23.64 0 26.28 0 29 C-12.87 29 -25.74 29 -39 29 C-39 8.11428571 -39 8.11428571 -34.8125 3.6875 C-31.21852832 1.53111699 -29.13327601 1.4833405 -25 2 C-21.60632755 3.43288392 -20.34199796 4.21375727 -18.86328125 7.61328125 C-18.57839844 8.40089844 -18.29351562 9.18851562 -18 10 C-17.49025635 9.69707031 -16.9805127 9.39414062 -16.45532227 9.08203125 C-14.15904432 7.71909947 -11.86080569 6.35950936 -9.5625 5 C-8.76005859 4.52304687 -7.95761719 4.04609375 -7.13085938 3.5546875 C-6.36708984 3.10351562 -5.60332031 2.65234375 -4.81640625 2.1875 C-4.10943604 1.76855469 -3.40246582 1.34960938 -2.67407227 0.91796875 C-1 0 -1 0 0 0 Z " fill="#FBFCFD" transform="translate(88,302)"/>
<path d="M0 0 C8.76418551 0.97379839 12.28331294 1.72992679 17.8125 8.0625 C21.75446656 13.35599795 21.70201613 18.61499612 21 25 C19.30104982 31.06767923 16.55278794 35.10121582 11.3125 38.625 C4.76375317 42.05992962 -1.25296114 42.03927213 -8.25 39.9375 C-13.42803691 37.72582837 -16.70679823 33.64397758 -19.140625 28.66796875 C-21.21498594 22.22802091 -21.12026474 14.48243916 -18.25 8.3125 C-16.6622121 5.37005179 -15.0613131 4.30556 -12 3 C-10.68 4.32 -9.36 5.64 -8 7 C-9.12451727 9.9719385 -10.22293791 12.33440687 -12 15 C-12.77286121 19.7180481 -12.42364132 23.19654232 -10.1875 27.4375 C-7.90277746 30.11388926 -6.2738156 31.7917169 -2.73046875 32.37109375 C1.75791286 32.48830187 4.98845813 32.56577717 8.5625 29.625 C12.48984927 25.39554694 12.38194428 22.33327017 12.3671875 16.7109375 C11.97741589 13.833262 11.54202915 12.80838159 9.5 10.8125 C8.675 10.214375 7.85 9.61625 7 9 C7 12.63 7 16.26 7 20 C4.69 20 2.38 20 0 20 C0 13.4 0 6.8 0 0 Z " fill="#F9FBFC" transform="translate(68,348)"/>
<path d="M0 0 C10.89 0 21.78 0 33 0 C33 8.25 33 16.5 33 25 C28.46095634 25.02291161 23.92211198 25.04283781 19.38305664 25.05493164 C17.83780234 25.0599714 16.29255284 25.0668032 14.74731445 25.07543945 C12.53074971 25.08752076 10.31424782 25.09323173 8.09765625 25.09765625 C7.05545677 25.10539818 7.05545677 25.10539818 5.99220276 25.11329651 C4.3277067 25.11349277 2.66334501 25.06189129 1 25 C0 24 0 24 -0.11352539 21.68334961 C-0.10828857 20.68311768 -0.10305176 19.68288574 -0.09765625 18.65234375 C-0.09515869 17.68031006 -0.09266113 16.70827637 -0.09008789 15.70678711 C-0.08098389 14.46292236 -0.07187988 13.21905762 -0.0625 11.9375 C-0.041875 7.998125 -0.02125 4.05875 0 0 Z " fill="#F1F5FA" transform="translate(2408,180)"/>
<path d="M0 0 C4.95 0 9.9 0 15 0 C15 17.49 15 34.98 15 53 C10.05 53 5.1 53 0 53 C0 35.51 0 18.02 0 0 Z " fill="#00649C" transform="translate(2276,544)"/>
<path d="M0 0 C4.95 0 9.9 0 15 0 C15 17.49 15 34.98 15 53 C10.05 53 5.1 53 0 53 C0 35.51 0 18.02 0 0 Z " fill="#00649C" transform="translate(1604,544)"/>
<path d="M0 0 C4.95 0 9.9 0 15 0 C15 17.49 15 34.98 15 53 C10.05 53 5.1 53 0 53 C0 35.51 0 18.02 0 0 Z " fill="#00649C" transform="translate(1237,544)"/>
<path d="M0 0 C4.95 0 9.9 0 15 0 C15 17.49 15 34.98 15 53 C10.05 53 5.1 53 0 53 C0 35.51 0 18.02 0 0 Z " fill="#00649C" transform="translate(751,544)"/>
<path d="M0 0 C4.95 0 9.9 0 15 0 C15 17.49 15 34.98 15 53 C10.05 53 5.1 53 0 53 C0 35.51 0 18.02 0 0 Z " fill="#00649C" transform="translate(291,544)"/>
<path d="M0 0 C4.07959404 2.39454433 5.57433171 4.57024496 7 9 C7.24900142 12.69020108 7.08927037 16.2952795 7 20 C12.61 20 18.22 20 24 20 C24 23.3 24 26.6 24 30 C11.13 30 -1.74 30 -15 30 C-15.0825 26.49375 -15.165 22.9875 -15.25 19.375 C-15.28641602 18.28106934 -15.32283203 17.18713867 -15.36035156 16.06005859 C-15.42888202 10.03490467 -15.08551302 6.54109181 -11 2 C-7.30390328 -0.46406448 -4.28972609 -0.67864807 0 0 Z " fill="#FDFDFE" transform="translate(64,204)"/>
<path d="M0 0 C4.1625612 -0.07453622 8.3247618 -0.12878254 12.48779297 -0.16479492 C13.90192437 -0.17981825 15.31600968 -0.20024305 16.72998047 -0.22631836 C18.77062397 -0.26298954 20.81064792 -0.27979036 22.8515625 -0.29296875 C24.07697754 -0.3086792 25.30239258 -0.32438965 26.56494141 -0.34057617 C30.39023617 0.03869079 32.74108581 0.99122956 36 3 C40.19920649 8.1937554 40.56311314 12.59297832 40.32421875 19.19140625 C39.67905951 24.78019536 37.23970126 28.42275207 33 32 C29.52217417 33.15927528 26.81196743 33.11313066 23.14453125 33.09765625 C22.15207649 33.09553383 22.15207649 33.09553383 21.13957214 33.09336853 C19.03050172 33.08777996 16.92153823 33.07522965 14.8125 33.0625 C13.38086091 33.05748352 11.94922015 33.05292087 10.51757812 33.04882812 C7.01168412 33.0378143 3.5058525 33.02055755 0 33 C0 30.03 0 27.06 0 24 C0.79696289 23.98018066 1.59392578 23.96036133 2.41503906 23.93994141 C6.02702472 23.84466752 9.63843399 23.73499693 13.25 23.625 C15.13138672 23.57859375 15.13138672 23.57859375 17.05078125 23.53125 C18.25605469 23.49257813 19.46132812 23.45390625 20.703125 23.4140625 C21.81333008 23.3826416 22.92353516 23.3512207 24.06738281 23.31884766 C26.88865042 23.01210644 28.5970009 22.45713775 31 21 C31.05399736 19.54207116 31.09279177 18.08357288 31.125 16.625 C31.14820312 15.81289063 31.17140625 15.00078125 31.1953125 14.1640625 C31.21370051 11.78657757 31.21370051 11.78657757 29 10 C25.99027343 9.62703444 25.99027343 9.62703444 22.4609375 9.5859375 C21.15898438 9.54726563 19.85703125 9.50859375 18.515625 9.46875 C17.13542138 9.43729237 15.75521296 9.40604509 14.375 9.375 C12.98695459 9.33682066 11.59893289 9.29776895 10.2109375 9.2578125 C6.80742815 9.16327057 3.40392835 9.07772103 0 9 C0 6.03 0 3.06 0 0 Z " fill="#FBFCFD" transform="translate(49,253)"/>
<path d="M0 0 C3.70510825 2.56507494 6.4031718 4.76168963 8 9 C8.26022279 13.01783984 8.08763938 16.9685883 8 21 C13.61 21 19.22 21 25 21 C25 23.97 25 26.94 25 30 C12.13 30 -0.74 30 -14 30 C-14.061875 26.844375 -14.12375 23.68875 -14.1875 20.4375 C-14.21481201 19.4570874 -14.24212402 18.4766748 -14.27026367 17.46655273 C-14.32322556 11.84974502 -13.72051492 7.94639076 -11 3 C-7.44821585 0.02418085 -4.57495069 -0.74693073 0 0 Z " fill="#FCFDFE" transform="translate(63,158)"/>
<path d="M0 0 C4.59349926 2.27703504 7.14824 5.57410518 9.0078125 10.33984375 C10.59375609 15.54173874 11.0078125 19.83315557 11.0078125 25.33984375 C-0.5421875 25.33984375 -12.0921875 25.33984375 -23.9921875 25.33984375 C-21.21259566 7.27249681 -21.21259566 7.27249681 -14.2421875 0.77734375 C-9.39248685 -1.36771615 -5.07369285 -1.68128253 0 0 Z " fill="#FEE600" transform="translate(971.9921875,217.66015625)"/>
<path d="M0 0 C0.36840038 8.84160908 -0.35000042 15.8544123 -6 23 C-10.86874065 27.41229622 -16.0470931 27.28611619 -22.37109375 27.21875 C-26.69208929 26.85920208 -28.79478632 25.16365458 -31.8125 22.25 C-33.57098729 18.91812934 -33.51262487 16.71653027 -33 13 C-29.30968191 6.51013026 -23.96799816 4.91897134 -17 3 C-4.72961373 0 -4.72961373 0 0 0 Z " fill="#03669E" transform="translate(1930,268)"/>
<path d="M0 0 C0.31350328 8.6213402 -0.39409355 16.07505673 -6 23 C-10.69921271 27.25866152 -15.49301169 27.22802339 -21.59375 27.15625 C-25.2489234 26.91890108 -27.76137099 26.03167603 -30.56640625 23.6953125 C-33.18927149 20.59361355 -33.32366896 16.94471548 -33 13 C-29.59542197 7.25477457 -24.9973562 5.10998332 -18.79492188 3.38769531 C-16.45329409 2.82455659 -14.10663275 2.30893821 -11.75 1.8125 C-10.54730469 1.54663086 -10.54730469 1.54663086 -9.3203125 1.27539062 C-6.11839665 0.58199915 -3.28952918 0 0 0 Z " fill="#02669D" transform="translate(1729,268)"/>
<path d="M0 0 C0.33646774 7.36490494 0.55028364 14.33791396 -3 21 C-6.69473548 24.79196536 -10.66441149 26.76085064 -15.9375 27.30078125 C-16.948125 27.30464844 -17.95875 27.30851562 -19 27.3125 C-20.010625 27.32925781 -21.02125 27.34601563 -22.0625 27.36328125 C-25.41548829 26.94861648 -27.27495124 25.95817663 -30 24 C-32.32487188 21.01087901 -32.47409442 17.70010027 -32.390625 13.96484375 C-31.72156148 10.59945427 -29.60017609 9.05595319 -27 7 C-24.06959076 5.04639384 -22.33381312 4.46148809 -18.96484375 3.7109375 C-17.50401367 3.38222656 -17.50401367 3.38222656 -16.01367188 3.046875 C-14.99853516 2.82515625 -13.98339844 2.6034375 -12.9375 2.375 C-11.91849609 2.14554687 -10.89949219 1.91609375 -9.84960938 1.6796875 C-2.30601283 0 -2.30601283 0 0 0 Z " fill="#03669D" transform="translate(2163,268)"/>
<path d="M0 0 C4.81747565 5.071027 6 7.93298565 6 15 C-6.87 15 -19.74 15 -33 15 C-30.20229778 6.60689335 -28.08630936 0.65372662 -20.125 -3.5 C-12.46344106 -4.72584943 -6.53761104 -4.58077508 0 0 Z " fill="#01659D" transform="translate(1456,239)"/>
<path d="M0 0 C4.12385927 1.78075741 6.79644397 4.08256705 9 8 C9.84368791 12.65831102 10.11002416 17.00961185 7.75390625 21.234375 C5.29653573 24.20037832 3.70246418 25.76584527 0 27 C-4.73039335 27.38773716 -7.05546399 27.48117872 -11.3125 25.3125 C-14.66981719 22.42364567 -16.64419083 20.37206115 -17.31640625 15.890625 C-17.59953072 10.44732865 -16.70560114 7.20635805 -13 3 C-8.95711409 -0.36907159 -5.06753389 -0.75189019 0 0 Z " fill="#03669D" transform="translate(72,109)"/>
<path d="M0 0 C9.24 0 18.48 0 28 0 C28 4.62 28 9.24 28 14 C18.76 14 9.52 14 0 14 C0 9.38 0 4.76 0 0 Z " fill="#00649C" transform="translate(1774,562)"/>
<path d="M0 0 C9.24 0 18.48 0 28 0 C28 4.62 28 9.24 28 14 C18.76 14 9.52 14 0 14 C0 9.38 0 4.76 0 0 Z " fill="#00649C" transform="translate(926,562)"/>
<path d="M0 0 C4.95 0 9.9 0 15 0 C15 4.62 15 9.24 15 14 C10.05 14 5.1 14 0 14 C0 9.38 0 4.76 0 0 Z " fill="#00649C" transform="translate(2276,525)"/>
<path d="M0 0 C4.95 0 9.9 0 15 0 C15 4.62 15 9.24 15 14 C10.05 14 5.1 14 0 14 C0 9.38 0 4.76 0 0 Z " fill="#00649C" transform="translate(1604,525)"/>
<path d="M0 0 C4.95 0 9.9 0 15 0 C15 4.62 15 9.24 15 14 C10.05 14 5.1 14 0 14 C0 9.38 0 4.76 0 0 Z " fill="#00649C" transform="translate(1237,525)"/>
<path d="M0 0 C4.95 0 9.9 0 15 0 C15 4.62 15 9.24 15 14 C10.05 14 5.1 14 0 14 C0 9.38 0 4.76 0 0 Z " fill="#00649C" transform="translate(751,525)"/>
<path d="M0 0 C4.95 0 9.9 0 15 0 C15 4.62 15 9.24 15 14 C10.05 14 5.1 14 0 14 C0 9.38 0 4.76 0 0 Z " fill="#00649C" transform="translate(291,525)"/>
<path d="M0 0 C2.5625 0.25 2.5625 0.25 5 1 C6.60725635 4.21451269 6.05748185 7.43612536 6 11 C3.36 11 0.72 11 -2 11 C-2.05399736 9.54207116 -2.09279177 8.08357288 -2.125 6.625 C-2.15980469 5.40683594 -2.15980469 5.40683594 -2.1953125 4.1640625 C-2 2 -2 2 0 0 Z " fill="#0A6CA2" transform="translate(58,168)"/>
<path d="M0 0 C2.86724686 0.57344937 3.8614515 0.8614515 6 3 C6.26991906 5.68839385 6.08737357 8.29141936 6 11 C3.36 11 0.72 11 -2 11 C-2.25 3.375 -2.25 3.375 0 0 Z " fill="#0A6AA1" transform="translate(58,213)"/>
<path d="M0 0 C4.875 0.875 4.875 0.875 6 2 C6.14115161 4.67058851 6.04247107 7.32432238 6 10 C3.36 10 0.72 10 -2 10 C-2.25 3.375 -2.25 3.375 0 0 Z " fill="#126FA4" transform="translate(58,313)"/>
</svg>
